<svg width="945" height="540" viewBox="0 0 929 531" fill="none" xmlns="http://www.w3.org/2000/svg">
<path d="M604.09 246.367C604.09 256.629 592.026 270.833 580.185 264.958C557.77 253.729 543.77 285.706 547.866 276.261C551.664 267.486 571.026 232.461 581.526 231.345C594.632 230.007 604.09 236.105 604.09 246.367Z" fill="#6B3BB5"/>
<path d="M302.045 382.824C302.045 382.824 330.566 395.02 341.066 384.535C351.566 374.05 389.248 388.253 389.248 388.253L406.375 359.995L331.832 329.655L301.97 382.75L302.045 382.824Z" fill="#270643"/>
<path d="M759.432 308.089C746.325 309.502 711.176 313.22 698.069 314.559C678.559 316.641 666.271 355.31 670.59 400.969C674.984 446.629 694.346 481.951 713.857 479.869C726.963 478.456 762.112 474.738 775.219 473.399C794.73 471.317 807.017 432.648 802.698 386.989C798.304 341.329 778.942 306.007 759.432 308.089Z" fill="#270643"/>
<path d="M713.576 480.017C733.15 478.197 745.565 439.692 741.306 394.014C737.047 348.337 717.725 312.784 698.151 314.604C678.576 316.424 666.161 354.928 670.42 400.606C674.68 446.284 694.001 481.837 713.576 480.017Z" fill="#614D77"/>
<path d="M710.158 443.365C721.051 442.353 727.958 420.912 725.586 395.476C723.214 370.041 712.461 350.242 701.569 351.255C690.676 352.268 683.768 373.709 686.14 399.144C688.512 424.58 699.265 444.378 710.158 443.365Z" fill="#270643"/>
<path d="M707.229 352.484C699.559 358.88 695.24 377.247 697.25 398.218C699.261 419.188 706.931 436.292 715.719 440.977C723.389 434.582 727.708 416.214 725.698 395.244C723.687 374.273 716.017 357.169 707.229 352.484Z" fill="#9FA0A2"/>
<path d="M707.229 352.484C699.559 358.88 695.24 377.247 697.25 398.218C699.261 419.188 706.931 436.292 715.719 440.977C723.389 434.582 727.708 416.214 725.698 395.244C723.687 374.273 716.017 357.169 707.229 352.484Z" fill="#5A3482"/>
<mask id="mask0_10771_66396" style="mask-type:luminance" maskUnits="userSpaceOnUse" x="696" y="352" width="31" height="89">
<path d="M707.229 352.484C699.559 358.88 695.24 377.247 697.25 398.218C699.261 419.188 706.931 436.292 715.719 440.977C723.389 434.582 727.708 416.214 725.698 395.244C723.687 374.273 716.017 357.169 707.229 352.484Z" fill="white"/>
</mask>
<g mask="url(#mask0_10771_66396)">
<path d="M722.421 375.165C719.219 375.537 710.655 376.429 707.453 376.727C702.687 377.247 699.708 386.692 700.75 397.846C701.793 409.001 706.559 417.627 711.325 417.107C714.527 416.735 723.091 415.842 726.293 415.545C731.059 415.024 734.038 405.58 732.995 394.425C731.953 383.271 727.187 374.645 722.421 375.165Z" fill="#F3EEDC"/>
</g>
<path d="M718.027 395.987C719.07 407.142 716.091 416.586 711.325 417.107C706.559 417.627 701.793 409.001 700.75 397.846C699.708 386.692 702.687 377.247 707.453 376.727C712.219 376.206 716.985 384.833 718.027 395.987Z" fill="#EEF5FF"/>
<path d="M104.926 178.027H38.3513C17.1278 178.027 0 217.217 0 265.553C0 313.89 17.2022 353.079 38.3513 353.079H104.926C126.15 353.079 143.278 313.89 143.278 265.553C143.278 217.217 126.075 178.027 104.926 178.027Z" fill="#270643"/>
<path d="M38.3513 353.079C59.5322 353.079 76.7027 313.893 76.7027 265.553C76.7027 217.214 59.5322 178.027 38.3513 178.027C17.1704 178.027 0 217.214 0 265.553C0 313.893 17.1704 353.079 38.3513 353.079Z" fill="#614D77"/>
<path d="M38.3515 314.336C50.1552 314.336 59.724 292.495 59.724 265.553C59.724 238.611 50.1552 216.771 38.3515 216.771C26.5478 216.771 16.979 238.611 16.979 265.553C16.979 292.495 26.5478 314.336 38.3515 314.336Z" fill="#270643"/>
<path d="M44.3086 218.704C35.3724 224.578 28.8936 243.318 28.8936 265.553C28.8936 287.788 35.3724 306.527 44.3086 312.402C53.2449 306.527 59.7237 287.788 59.7237 265.553C59.7237 243.318 53.2449 224.578 44.3086 218.704Z" fill="#9FA0A2"/>
<path d="M44.3086 218.704C35.3724 224.578 28.8936 243.318 28.8936 265.553C28.8936 287.788 35.3724 306.527 44.3086 312.402C53.2449 306.527 59.7237 287.788 59.7237 265.553C59.7237 243.318 53.2449 224.578 44.3086 218.704Z" fill="#5A3482"/>
<mask id="mask1_10771_66396" style="mask-type:luminance" maskUnits="userSpaceOnUse" x="28" y="218" width="32" height="95">
<path d="M44.3086 218.704C35.3724 224.578 28.8936 243.318 28.8936 265.553C28.8936 287.788 35.3724 306.527 44.3086 312.402C53.2449 306.527 59.7237 287.788 59.7237 265.553C59.7237 243.318 53.2449 224.578 44.3086 218.704Z" fill="white"/>
</mask>
<g mask="url(#mask1_10771_66396)">
<path d="M58.3087 244.211H42.0745C36.9362 244.211 32.6914 253.804 32.6914 265.553C32.6914 277.303 36.8617 286.895 42.0745 286.895H58.3087C63.447 286.895 67.6918 277.303 67.6918 265.553C67.6918 253.804 63.5215 244.211 58.3087 244.211Z" fill="#F3EEDC"/>
</g>
<path d="M51.4574 265.553C51.4574 277.377 47.2873 286.895 42.0745 286.895C36.8617 286.895 32.6914 277.303 32.6914 265.553C32.6914 253.804 36.8617 244.211 42.0745 244.211C47.2873 244.211 51.4574 253.804 51.4574 265.553Z" fill="#EEF5FF"/>
<path d="M811.188 420.973L915.816 462.543C922.444 465.145 930.188 458.527 928.848 451.388C924.305 427.517 912.39 385.874 883.72 374.273C824.666 350.476 811.188 420.973 811.188 420.973Z" fill="#6B3BB5"/>
<path d="M828.241 412.347L637.08 440.382C666.048 446.182 688.835 464.996 699.335 491.098L911.273 452.131C905.837 444.398 894.145 430.268 873.443 420.973C855.124 412.719 837.921 412.049 828.166 412.347H828.241Z" fill="#281251"/>
<path d="M767.772 465.368C767.772 465.368 767.251 465.145 767.176 464.922C767.176 464.625 767.326 464.327 767.624 464.253L899.582 438.077C899.582 438.077 900.178 438.225 900.252 438.523C900.252 438.82 900.103 439.118 899.805 439.192L767.847 465.368C767.847 465.368 767.772 465.368 767.698 465.368H767.772Z" fill="#8A4DFF"/>
<path d="M421.567 180.853L387.163 95.1855L393.641 32.7942L341.737 0L329.151 1.93353V86.4851L388.205 190.892L421.567 180.853Z" fill="#6B3BB5"/>
<path d="M410.099 179.812C410.099 179.812 409.652 179.663 409.578 179.44L376.513 97.0446C376.513 97.0446 376.513 96.8961 376.513 96.7473L381.726 37.6281L328.779 2.45414C328.779 2.45414 328.407 1.93325 328.63 1.6358C328.779 1.33834 329.151 1.26429 329.449 1.48738L382.62 36.8102C382.62 36.8102 382.918 37.1077 382.918 37.3308L377.705 96.6729L410.695 178.919C410.695 178.919 410.695 179.588 410.397 179.663C410.397 179.663 410.248 179.663 410.173 179.663L410.099 179.812Z" fill="#404041"/>
<path d="M106.118 29.6711L327.513 15.5422L366.162 37.9253V47.9647L141.565 62.168L106.118 29.6711Z" fill="#270643"/>
<path d="M173.81 25.3578L202.406 47.667V58.3754L214.098 57.6319V46.9979L188.555 24.4655L173.81 25.4323V25.3578ZM291.992 17.8475L277.173 18.8138L306.96 42.0897V51.7573L318.652 51.0134V41.4207L291.992 17.9215V17.8475Z" fill="#F3EEDC"/>
<path d="M146.703 51.534C146.703 51.534 146.107 51.3109 146.107 51.0134C146.107 50.716 146.331 50.4184 146.629 50.4184L366.162 37.4047C366.162 37.4047 366.758 37.6279 366.758 37.9253C366.758 38.2228 366.535 38.5204 366.237 38.5204L146.703 51.534Z" fill="#404041"/>
<path d="M187.81 195.725L153.405 109.984L159.81 47.667L107.98 14.8727L95.3198 16.8063V101.283L154.448 205.69L187.81 195.725Z" fill="#6B3BB5"/>
<path d="M176.342 194.61C176.342 194.61 175.895 194.461 175.821 194.238L142.756 111.843C142.756 111.843 142.756 111.694 142.756 111.545L147.969 52.4262L95.022 17.2523C95.022 17.2523 94.6497 16.7319 94.8732 16.4344C95.0221 16.137 95.3943 16.0624 95.6922 16.2855L148.863 51.6083C148.863 51.6083 149.161 51.9058 149.161 52.1289L143.948 111.471L176.938 193.717C176.938 193.717 176.938 194.387 176.64 194.461C176.64 194.461 176.491 194.461 176.416 194.461L176.342 194.61Z" fill="#404041"/>
<path d="M160.629 248.821C160.629 248.821 671.186 525.677 734.112 526.272C775.74 527.983 808.73 488.867 750.048 414.652C732.027 391.897 710.133 372.488 685.41 356.797C622.484 316.789 512.866 239.228 496.036 191.635C476.451 136.309 435.716 61.5732 383.29 65.217C331.013 68.8608 249.768 173.342 197.193 178.473C144.842 183.604 136.278 236.031 160.629 248.747V248.821Z" fill="#6B3BB5"/>
<path d="M390.216 179.886C423.131 178.176 456.046 177.952 487.547 169.995C465.951 118.759 429.014 62.0935 383.216 65.2912C364.524 66.6297 342.109 80.8332 318.577 98.7548C349.854 117.718 378.45 143.15 390.141 179.812L390.216 179.886Z" fill="#F3EEDC"/>
<path d="M749.974 414.652C731.953 391.897 710.059 372.488 685.335 356.797C622.409 316.789 512.791 239.228 495.961 191.636C493.504 184.645 490.674 177.357 487.547 169.921C455.972 177.878 423.057 178.101 390.216 179.812C378.524 143.076 349.928 117.643 318.651 98.7548C276.502 130.954 230.927 175.201 197.193 178.547C144.842 183.679 136.278 236.105 160.629 248.821C160.629 248.821 671.186 525.678 734.112 526.272C775.74 527.983 808.73 488.867 750.048 414.652H749.974Z" fill="#8A4DFF"/>
<path d="M312.247 275.071C312.247 275.071 245.449 250.16 179.321 231.346C125.926 234.692 110.139 260.348 112.299 289.721C115.873 336.719 172.097 348.32 223.778 374.198C271.885 398.218 290.949 392.194 290.949 392.194C297.726 392.194 340.992 384.535 340.992 322.664C340.992 282.434 312.247 275.071 312.247 275.071Z" fill="#8D61E2"/>
<path d="M749.974 414.652C743.868 406.993 737.315 399.705 730.389 392.789C684.591 390.261 643.112 407.365 615.186 432.871C615.186 432.871 570.43 399.408 503.93 366.167C437.504 332.926 345.163 282.508 307.183 265.553C269.204 248.524 198.98 275.815 198.533 330.695C198.533 330.695 141.714 302.809 112.299 289.647C112.299 289.647 112.299 289.721 112.299 289.795C115.873 336.793 172.097 348.394 223.778 374.273C271.885 398.292 290.949 392.194 290.949 392.194C296.832 392.194 330.567 386.32 339.056 343.635C492.759 423.873 695.836 525.975 734.038 526.272C775.666 527.983 808.655 488.867 749.974 414.652Z" fill="#F3EEDC"/>
<path d="M737.836 519.133C732.325 519.133 727.113 518.464 722.942 517.2C716.91 515.341 657.261 486.19 545.707 430.492C545.558 430.492 545.483 430.269 545.409 430.12C534.611 393.979 512.643 384.386 500.504 381.932C485.164 378.735 471.61 383.717 466.174 390.186C466.025 390.41 465.727 390.484 465.43 390.335C376.961 346.015 298.322 306.304 297.503 305.933C297.205 305.784 297.13 305.412 297.205 305.114C297.354 304.817 297.726 304.743 298.024 304.817C298.843 305.189 377.184 344.75 465.504 388.997C471.387 382.378 485.164 377.47 500.653 380.668C513.015 383.196 535.356 392.938 546.377 429.451C657.708 485 717.208 514.151 723.166 515.936C739.772 520.993 771.124 516.233 778.794 499.576C778.943 499.278 779.315 499.13 779.613 499.278C779.911 499.427 780.06 499.799 779.911 500.096C774.028 513.036 754.443 518.985 737.836 518.985V519.133Z" fill="#404041"/>
<path d="M546.451 448.785C546.451 448.785 538.93 402.903 504.004 390.93C469.004 378.958 465.727 409.596 465.727 409.596L546.451 448.785Z" fill="#270643"/>
<path d="M516.962 420.973L426.184 432.872L425.514 421.865L514.281 411.901C514.281 411.901 521.877 414.578 517.036 420.899L516.962 420.973Z" fill="#F3EEDC"/>
<path d="M525.823 436.962L466.025 434.359L465.578 427.666L525.228 431.83C525.228 431.83 530.962 433.318 525.898 436.962H525.823Z" fill="#F3EEDC"/>
<path d="M459.844 339.768C446.737 341.181 411.588 344.899 398.482 346.238C378.971 348.32 366.683 386.989 371.003 432.648C375.322 478.308 394.758 513.63 414.269 511.548C427.375 510.135 462.525 506.417 475.631 505.078C495.142 502.996 507.429 464.327 503.11 418.668C498.791 373.008 479.355 337.686 459.844 339.768Z" fill="#270643"/>
<path d="M414.05 511.708C433.624 509.888 446.039 471.384 441.78 425.706C437.52 380.029 418.199 344.475 398.625 346.296C379.05 348.116 366.635 386.62 370.895 432.298C375.154 477.975 394.475 513.529 414.05 511.708Z" fill="#614D77"/>
<path d="M426.11 426.848C428.567 452.28 421.716 473.846 410.769 474.961C399.897 476.077 389.099 456.445 386.641 431.012C384.184 405.58 391.035 384.014 401.982 382.899C412.854 381.783 423.652 401.416 426.11 426.848Z" fill="#270643"/>
<path d="M407.642 384.089C399.972 390.484 395.652 408.852 397.663 429.822C399.674 450.793 407.344 467.897 416.131 472.582C423.801 466.186 428.121 447.819 426.11 426.848C424.099 405.878 416.429 388.774 407.642 384.089Z" fill="#9FA0A2"/>
<path d="M407.642 384.089C399.972 390.484 395.652 408.852 397.663 429.822C399.674 450.793 407.344 467.897 416.131 472.582C423.801 466.186 428.121 447.819 426.11 426.848C424.099 405.878 416.429 388.774 407.642 384.089Z" fill="#5A3482"/>
<mask id="mask2_10771_66396" style="mask-type:luminance" maskUnits="userSpaceOnUse" x="397" y="384" width="30" height="89">
<path d="M407.642 384.089C399.972 390.484 395.652 408.852 397.663 429.822C399.674 450.793 407.344 467.897 416.131 472.582C423.801 466.186 428.121 447.819 426.11 426.848C424.099 405.878 416.429 388.774 407.642 384.089Z" fill="white"/>
</mask>
<g mask="url(#mask2_10771_66396)">
<path d="M422.833 406.77C419.631 407.142 411.067 408.034 407.865 408.331C403.099 408.852 400.12 418.296 401.163 429.451C402.206 440.605 406.971 449.232 411.737 448.711C414.94 448.339 423.503 447.447 426.706 447.149C431.472 446.629 434.45 437.185 433.408 426.03C432.365 414.875 427.599 406.249 422.833 406.77Z" fill="#F3EEDC"/>
</g>
<path d="M418.44 427.666C419.482 438.821 416.503 448.265 411.737 448.785C406.971 449.306 402.206 440.68 401.163 429.525C400.12 418.371 403.099 408.926 407.865 408.406C412.631 407.885 417.397 416.512 418.44 427.666Z" fill="#EEF5FF"/>
<path d="M615.186 445.959L426.11 473.697L526.866 524.413L677.442 496.75C666.942 470.574 644.154 451.834 615.186 446.034V445.959Z" fill="#281251"/>
<path d="M507.579 515.192C507.579 515.192 507.057 514.969 506.983 514.746C506.983 514.448 507.132 514.077 507.43 514.077L669.474 481.208C669.474 481.208 670.069 481.357 670.144 481.654C670.218 481.952 669.995 482.323 669.697 482.323L507.653 515.192C507.653 515.192 507.579 515.192 507.504 515.192H507.579Z" fill="#8A4DFF"/>
<path d="M423.875 494.742L516.217 530.437C522.844 532.965 529.919 526.57 528.132 519.654C522.1 496.527 507.653 456.148 478.982 444.919C438.173 428.93 421.567 456.965 415.312 475.482C412.631 483.439 416.429 491.842 423.875 494.742Z" fill="#6B3BB5"/>
<path d="M309.119 283.103C283.13 275.369 253.64 279.459 237.48 299.017C250.587 300.579 263.172 306.825 271.885 316.864C277.917 323.78 282.087 332.109 285.587 340.586C290.055 351.22 293.63 362.375 294.375 373.901C294.524 376.652 294.524 379.404 294.375 382.156C298.321 380.743 302.268 378.735 306.066 375.909C320.811 365.052 329.449 346.907 331.907 329.729C334.588 310.841 329.449 289.201 309.119 283.177V283.103Z" fill="#411272"/>
<path d="M294.375 373.827C293.63 362.3 289.981 351.145 285.587 340.511C282.087 332.034 277.917 323.705 271.885 316.789C263.172 306.825 250.587 300.578 237.48 298.942C232.044 305.561 228.097 313.89 226.385 324.152C222.81 345.197 229.736 364.159 247.981 374.719C260.045 381.709 273.672 385.948 286.853 383.866C289.385 383.494 291.917 382.825 294.375 382.007C294.524 379.255 294.524 376.504 294.375 373.752V373.827Z" fill="#6B3BB5"/>
<path d="M226.31 324.3C223.555 340.437 227.055 355.384 237.108 366.241C242.619 364.903 247.981 362.449 253.119 358.656C268.311 347.353 276.726 328.465 278.662 310.543C279.779 300.355 278.662 289.349 274.268 280.277C250.885 283.4 230.853 297.306 226.31 324.375V324.3Z" fill="#270643"/>
<path d="M229.14 375.24C229.14 375.24 228.917 375.239 228.768 375.091C213.427 363.49 204.64 330.77 215.81 304.296C231.97 266.148 276.8 266.892 302.045 270.684C302.343 270.684 302.566 271.056 302.566 271.353C302.566 271.651 302.194 271.874 301.896 271.874C276.949 268.081 232.714 267.337 216.927 304.742C208.065 325.713 211.64 360.59 229.512 374.124C229.81 374.347 229.81 374.719 229.661 374.942C229.512 375.091 229.364 375.165 229.215 375.165L229.14 375.24Z" fill="#404041"/>
<path d="M214.395 313.444C214.395 313.444 214.246 313.444 214.172 313.444L112.745 270.461C112.745 270.461 112.298 270.015 112.447 269.718C112.596 269.42 112.894 269.271 113.192 269.42L214.618 312.402C214.618 312.402 215.065 312.848 214.916 313.146C214.842 313.369 214.618 313.518 214.395 313.518V313.444Z" fill="#404041"/>
<path d="M455.971 116.453C455.971 116.453 440.333 98.2347 416.28 98.2347C328.779 98.2347 322.97 224.802 325.726 227.851C325.726 227.851 321.183 239.972 357.822 258.191C394.311 276.335 439.663 290.985 439.663 290.985C439.663 290.985 490.003 235.213 557.398 263.62C557.398 263.62 459.695 179.514 456.046 116.305L455.971 116.453Z" fill="#6B3BB5"/>
<path d="M338.162 222.719C331.162 158.544 370.482 108.943 419.929 111.471C472.504 114.148 482.483 183.604 487.174 200.41C491.791 217.068 538.781 257.819 538.781 257.819C538.781 257.819 491.568 244.508 449.94 282.805C386.939 261.834 340.545 244.434 338.237 222.719H338.162Z" fill="#270643"/>
<path d="M449.865 282.805C474.291 260.347 500.653 255.663 518.228 255.588C511.451 250.234 505.047 243.541 501.844 235.956C493.281 215.878 423.652 222.422 392.673 226.14C375.322 228.222 371.45 241.682 371.45 253.06C391.184 262.727 418.439 272.32 449.865 282.731V282.805Z" fill="#9362F4"/>
<path d="M422.535 274.105C422.535 274.105 422.014 273.881 421.939 273.584C419.482 252.539 408.758 236.328 403.397 230.676C403.173 230.453 403.173 230.081 403.397 229.858C403.62 229.635 403.992 229.635 404.216 229.858C409.652 235.584 420.524 252.093 423.056 273.435C423.056 273.733 422.833 274.03 422.535 274.105Z" fill="#404041"/>
<path d="M498.791 257.373C498.791 257.373 498.27 257.15 498.195 256.852C495.142 239.674 484.344 231.866 484.27 231.792C483.972 231.569 483.972 231.271 484.121 230.974C484.27 230.676 484.642 230.676 484.94 230.825C485.089 230.899 496.259 238.931 499.387 256.629C499.387 256.927 499.238 257.224 498.94 257.298C498.94 257.298 498.94 257.298 498.866 257.298L498.791 257.373Z" fill="#404041"/>
<path d="M458.652 241.682C458.652 241.682 470.418 257.671 470.94 266.966L475.333 264.438C475.333 264.438 474.514 251.126 464.61 240.567C462.822 240.938 458.727 241.682 458.727 241.682H458.652Z" fill="#7EDB24"/>
<path d="M725.325 488.793C710.952 488.793 697.622 484.554 692.335 476.597C662.026 426.253 552.334 360.218 366.386 280.351C316.492 258.935 277.619 234.395 253.864 217.663C228.097 199.518 213.874 186.207 213.799 186.058C213.576 185.835 213.576 185.463 213.799 185.24C214.023 185.017 214.395 185.017 214.618 185.24C214.767 185.388 228.917 198.626 254.608 216.77C278.364 233.502 317.087 257.968 366.907 279.31C553.079 359.325 662.994 425.509 693.452 476.002C702.314 489.239 736.346 491.544 756.229 480.241C765.017 475.259 778.123 463.36 766.878 440.01C766.729 439.713 766.878 439.341 767.176 439.192C767.474 439.043 767.846 439.192 767.995 439.489C779.687 463.732 766.059 476.076 756.9 481.282C747.963 486.413 736.421 488.793 725.548 488.793H725.325Z" fill="#404041"/>
<path d="M370.109 111.992C370.109 111.992 369.811 111.992 369.662 111.843C359.684 101.878 337.269 89.5337 336.971 89.4593C336.673 89.3106 336.598 88.9389 336.747 88.6415C336.896 88.344 337.268 88.2699 337.566 88.4186C337.79 88.5673 360.354 100.912 370.482 111.025C370.705 111.248 370.705 111.62 370.482 111.843C370.333 111.992 370.184 111.992 370.035 111.992H370.109Z" fill="#404041"/>
<path d="M239.863 250.532C239.863 250.532 239.715 250.532 239.64 250.532C208.214 237.295 186.916 233.949 174.629 233.502C161.299 232.982 155.267 235.584 155.193 235.584C154.895 235.733 154.522 235.585 154.373 235.287C154.224 234.99 154.373 234.617 154.671 234.469C155.639 234.023 179.469 223.909 240.087 249.416C240.385 249.565 240.534 249.862 240.385 250.16C240.31 250.383 240.087 250.532 239.863 250.532Z" fill="#404041"/>
<path d="M328.109 158.841C315.226 181.15 291.396 199.22 274.938 199.22C258.48 199.22 255.576 181.15 268.534 158.841C281.417 136.532 305.247 118.461 321.704 118.461C338.162 118.461 341.066 136.532 328.109 158.841Z" fill="#F3EEDC"/>
<path d="M260.78 125.031L259.889 124.821L260.182 122.346H263.012V123.218H261.096L260.987 124.179C261.04 124.148 261.13 124.112 261.256 124.069C261.385 124.025 261.527 124.003 261.682 124.003C261.921 124.003 262.133 124.039 262.317 124.113C262.504 124.184 262.661 124.289 262.79 124.429C262.918 124.566 263.015 124.736 263.079 124.938C263.146 125.139 263.179 125.37 263.179 125.63C263.179 125.838 263.144 126.04 263.076 126.235C263.009 126.428 262.906 126.602 262.766 126.757C262.629 126.91 262.455 127.032 262.244 127.123C262.033 127.212 261.784 127.256 261.496 127.256C261.28 127.256 261.071 127.223 260.867 127.156C260.663 127.09 260.479 126.995 260.315 126.87C260.153 126.744 260.024 126.592 259.929 126.415C259.836 126.235 259.79 126.034 259.792 125.813H260.92C260.927 125.93 260.954 126.032 261.003 126.119C261.052 126.205 261.117 126.273 261.2 126.321C261.284 126.368 261.38 126.391 261.489 126.391C261.6 126.391 261.692 126.369 261.765 126.325C261.838 126.28 261.896 126.219 261.938 126.142C261.98 126.064 262.01 125.976 262.028 125.876C262.046 125.774 262.054 125.666 262.054 125.553C262.054 125.433 262.041 125.326 262.015 125.23C261.99 125.135 261.95 125.054 261.895 124.988C261.839 124.919 261.767 124.867 261.679 124.831C261.592 124.796 261.488 124.778 261.366 124.778C261.204 124.778 261.076 124.806 260.983 124.861C260.89 124.917 260.823 124.973 260.78 125.031ZM264.795 124.299H265.341C265.481 124.299 265.595 124.275 265.684 124.226C265.775 124.175 265.842 124.104 265.887 124.013C265.931 123.92 265.953 123.81 265.953 123.684C265.953 123.586 265.932 123.496 265.89 123.414C265.85 123.332 265.788 123.267 265.704 123.218C265.619 123.167 265.512 123.141 265.381 123.141C265.292 123.141 265.206 123.16 265.121 123.198C265.037 123.233 264.967 123.284 264.912 123.351C264.859 123.417 264.832 123.498 264.832 123.594H263.708C263.708 123.319 263.783 123.084 263.934 122.888C264.087 122.691 264.288 122.54 264.536 122.436C264.787 122.33 265.056 122.276 265.344 122.276C265.688 122.276 265.99 122.33 266.249 122.436C266.509 122.54 266.71 122.696 266.855 122.902C267.001 123.106 267.074 123.359 267.074 123.66C267.074 123.827 267.035 123.983 266.958 124.129C266.88 124.276 266.771 124.404 266.632 124.515C266.492 124.626 266.328 124.714 266.139 124.778C265.953 124.84 265.749 124.871 265.527 124.871H264.795V124.299ZM264.795 125.134V124.575H265.527C265.769 124.575 265.99 124.603 266.189 124.658C266.389 124.711 266.561 124.791 266.705 124.898C266.849 125.004 266.96 125.136 267.038 125.294C267.115 125.449 267.154 125.627 267.154 125.829C267.154 126.055 267.109 126.257 267.018 126.435C266.927 126.612 266.799 126.762 266.635 126.884C266.471 127.006 266.279 127.099 266.06 127.163C265.84 127.225 265.602 127.256 265.344 127.256C265.143 127.256 264.941 127.23 264.739 127.176C264.537 127.121 264.353 127.037 264.187 126.924C264.02 126.808 263.886 126.662 263.784 126.484C263.684 126.305 263.635 126.091 263.635 125.842H264.759C264.759 125.944 264.787 126.038 264.842 126.122C264.9 126.204 264.976 126.269 265.072 126.318C265.167 126.367 265.27 126.391 265.381 126.391C265.518 126.391 265.635 126.366 265.73 126.315C265.828 126.262 265.902 126.191 265.953 126.102C266.004 126.013 266.03 125.915 266.03 125.806C266.03 125.642 266.002 125.511 265.946 125.413C265.893 125.316 265.815 125.245 265.71 125.2C265.608 125.156 265.485 125.134 265.341 125.134H264.795Z" fill="#404041"/>
<path d="M675.729 355.682C698.74 373.678 696.804 388.253 671.335 388.253C645.867 388.253 606.547 373.678 583.462 355.682C560.451 337.686 562.388 323.111 587.856 323.111C613.324 323.111 652.644 337.686 675.729 355.682Z" fill="#F3EEDC"/>
<path d="M613.237 330.401L612.243 330.167L612.569 327.406H615.728V328.378H613.59L613.468 329.451C613.527 329.416 613.627 329.375 613.768 329.328C613.912 329.279 614.07 329.254 614.243 329.254C614.511 329.254 614.747 329.295 614.952 329.377C615.16 329.456 615.336 329.573 615.479 329.729C615.623 329.883 615.73 330.072 615.802 330.297C615.876 330.522 615.914 330.78 615.914 331.069C615.914 331.302 615.875 331.527 615.799 331.745C615.724 331.96 615.609 332.154 615.453 332.327C615.3 332.498 615.106 332.634 614.871 332.736C614.636 332.835 614.357 332.884 614.035 332.884C613.795 332.884 613.562 332.847 613.334 332.773C613.106 332.698 612.901 332.592 612.718 332.454C612.537 332.312 612.394 332.143 612.287 331.945C612.183 331.745 612.133 331.521 612.135 331.273H613.393C613.401 331.404 613.432 331.518 613.486 331.615C613.541 331.711 613.614 331.787 613.705 331.841C613.799 331.893 613.907 331.919 614.028 331.919C614.152 331.919 614.254 331.894 614.336 331.845C614.418 331.795 614.482 331.727 614.529 331.641C614.576 331.554 614.61 331.455 614.629 331.344C614.649 331.23 614.659 331.11 614.659 330.984C614.659 330.85 614.644 330.73 614.614 330.624C614.587 330.517 614.543 330.427 614.481 330.353C614.419 330.276 614.339 330.218 614.24 330.178C614.143 330.139 614.027 330.119 613.891 330.119C613.71 330.119 613.568 330.15 613.464 330.212C613.36 330.274 613.284 330.337 613.237 330.401ZM617.717 329.584H618.326C618.482 329.584 618.609 329.557 618.708 329.503C618.81 329.446 618.885 329.367 618.935 329.265C618.984 329.161 619.009 329.039 619.009 328.898C619.009 328.789 618.986 328.689 618.939 328.597C618.894 328.506 618.825 328.433 618.731 328.378C618.637 328.321 618.517 328.293 618.371 328.293C618.272 328.293 618.175 328.314 618.081 328.356C617.987 328.395 617.909 328.452 617.847 328.527C617.788 328.601 617.758 328.691 617.758 328.798H616.504C616.504 328.491 616.588 328.228 616.756 328.011C616.927 327.79 617.151 327.622 617.428 327.506C617.708 327.387 618.008 327.328 618.33 327.328C618.713 327.328 619.05 327.387 619.339 327.506C619.629 327.622 619.854 327.795 620.015 328.026C620.178 328.253 620.26 328.535 620.26 328.872C620.26 329.057 620.217 329.232 620.13 329.395C620.043 329.558 619.922 329.702 619.766 329.826C619.61 329.949 619.427 330.047 619.217 330.119C619.009 330.188 618.781 330.223 618.534 330.223H617.717V329.584ZM617.717 330.516V329.892H618.534C618.804 329.892 619.05 329.923 619.273 329.985C619.495 330.045 619.687 330.134 619.848 330.253C620.009 330.371 620.132 330.519 620.219 330.694C620.306 330.867 620.349 331.067 620.349 331.292C620.349 331.544 620.298 331.769 620.197 331.967C620.095 332.165 619.953 332.332 619.77 332.468C619.587 332.604 619.373 332.708 619.128 332.78C618.883 332.849 618.617 332.884 618.33 332.884C618.105 332.884 617.879 332.854 617.654 332.795C617.429 332.733 617.224 332.639 617.038 332.513C616.853 332.384 616.703 332.221 616.589 332.023C616.478 331.823 616.422 331.584 616.422 331.307H617.677C617.677 331.42 617.708 331.524 617.769 331.618C617.834 331.71 617.919 331.783 618.025 331.837C618.132 331.892 618.247 331.919 618.371 331.919C618.524 331.919 618.654 331.891 618.76 331.834C618.869 331.774 618.952 331.695 619.009 331.596C619.066 331.497 619.094 331.387 619.094 331.266C619.094 331.083 619.064 330.937 619.002 330.828C618.942 330.719 618.854 330.64 618.738 330.59C618.624 330.541 618.487 330.516 618.326 330.516H617.717Z" fill="#404041"/>
<path d="M381.875 189.256C377.407 189.256 373.907 182.489 373.907 173.862C373.907 165.236 377.407 158.469 381.875 158.469C386.344 158.469 389.843 165.236 389.843 173.862C389.843 182.489 386.344 189.256 381.875 189.256ZM381.875 159.659C378.226 159.659 375.099 166.129 375.099 173.862C375.099 181.596 378.226 188.066 381.875 188.066C385.524 188.066 388.652 181.596 388.652 173.862C388.652 166.129 385.524 159.659 381.875 159.659Z" fill="#404041"/>
<path d="M375.173 220.191C383.067 230.304 453.589 270.907 507.728 224.132C534.685 104.853 415.238 60.7551 374.578 144.712C367.28 162.187 368.397 198.774 375.173 220.191Z" fill="#6B3BB5"/>
<path d="M379.046 136.532C377.482 139.134 375.992 141.812 374.577 144.712C370.109 155.346 368.769 172.97 369.96 189.999C434.004 239.674 489.11 223.538 510.781 205.616C513.089 183.753 510.334 164.939 504.004 149.545C470.791 169.252 401.312 145.084 379.046 136.532Z" fill="#F3EEDC"/>
<path d="M421.418 159.361C400.567 149.248 378.822 186.653 407.344 202.716C447.408 225.248 490.823 219.076 511.376 199.072C512.345 182.935 510.483 168.583 506.387 156.164C483.972 172.152 438.472 167.616 421.418 159.361Z" fill="#270643"/>
<path d="M417.918 167.616C420.599 165.682 422.907 163.377 424.769 160.774C423.577 160.328 422.46 159.807 421.418 159.361C403.024 150.438 384.035 178.473 399.301 196.246C404.439 186.207 408.907 175.201 417.918 167.616Z" fill="#270643"/>
<path d="M424.769 160.774C422.908 163.377 420.599 165.682 417.918 167.616C408.833 175.126 404.365 186.133 399.301 196.246C401.089 198.254 403.248 200.187 405.929 201.898C411.44 192.082 418.738 182.266 429.833 177.581C434.897 175.87 437.429 170.962 439.142 164.716C433.631 163.675 428.716 162.336 424.769 160.849V160.774Z" fill="#270643"/>
<path d="M439.142 164.641C437.429 170.814 434.897 175.796 429.833 177.506C418.737 182.266 411.439 192.082 405.929 201.823C406.376 202.121 406.822 202.418 407.344 202.641C411.588 205.021 415.908 207.103 420.227 208.888C426.259 199.146 435.567 194.387 447.706 205.17C456.419 193.272 462.078 180.109 467.142 166.798C457.387 167.095 447.631 166.203 439.216 164.641H439.142Z" fill="#270643"/>
<path d="M506.461 156.164C504.004 157.949 501.248 159.436 498.27 160.7C496.482 171.483 494.248 182.042 487.323 191.338C485.312 197.287 479.429 183.455 477.418 185.389C467.886 193.346 459.62 203.831 454.706 216.845C478.089 218.183 499.014 211.193 511.451 199.072C512.419 182.935 510.557 168.583 506.461 156.164Z" fill="#270643"/>
<path d="M467.068 166.798C462.078 180.109 456.344 193.272 447.631 205.17C435.567 194.461 426.184 199.221 420.152 208.888C431.769 213.647 443.461 216.175 454.557 216.845C459.472 203.831 467.738 193.346 477.27 185.389C479.281 183.381 485.164 197.287 487.174 191.338C494.1 182.117 496.334 171.483 498.121 160.7C489.036 164.641 478.015 166.426 466.919 166.798H467.068Z" fill="#270643"/>
<path d="M453.291 239.303C411.812 239.303 374.056 216.324 373.46 215.952C373.163 215.803 373.088 215.432 373.237 215.134C373.386 214.837 373.758 214.763 374.056 214.911C374.875 215.432 453.44 263.248 508.1 219.968C508.323 219.745 508.696 219.819 508.919 220.043C509.142 220.266 509.068 220.637 508.844 220.86C491.642 234.543 472.057 239.228 453.291 239.228V239.303Z" fill="#404041"/>
<path d="M472.28 151.33C460.44 151.33 446.142 149.62 429.535 146.125C403.769 140.771 381.652 133.037 381.429 132.962C381.131 132.888 380.982 132.516 381.056 132.218C381.131 131.921 381.503 131.772 381.801 131.847C382.694 132.144 469.823 162.485 501.472 144.191C501.77 144.043 502.142 144.191 502.291 144.414C502.44 144.712 502.291 145.083 502.068 145.232C495.068 149.322 485.014 151.33 472.206 151.33H472.28Z" fill="#404041"/>
<path d="M358.716 301.396C365.343 311.956 381.726 313.592 395.205 305.04C406.748 297.753 420.376 301.322 425.439 301.322C430.503 301.322 430.28 292.398 426.557 292.25C418.588 291.952 415.461 294.109 407.418 288.234C400.567 283.252 404.365 276.782 397.514 270.461C391.184 264.661 379.939 262.876 371.226 266.966C357.301 273.436 353.205 292.621 358.79 301.396H358.716Z" fill="#6B3BB5"/>
<path d="M369.588 308.981C369.588 308.981 369.29 308.981 369.141 308.832C369.066 308.758 358.864 297.753 363.928 282.657C368.843 268.007 385.301 266.371 392.152 266.371C392.45 266.371 392.748 266.669 392.748 266.966C392.748 267.264 392.45 267.561 392.152 267.561C385.598 267.561 369.737 269.048 365.12 283.028C360.279 297.455 370.034 307.94 370.109 308.015C370.332 308.238 370.332 308.609 370.109 308.832C369.96 308.907 369.886 308.981 369.737 308.981H369.588Z" fill="#404041"/>
<path d="M581.302 263.991C581.302 263.991 581.004 263.991 580.855 263.842C571.323 254.324 572.292 243.393 583.611 232.089C583.834 231.866 584.206 231.866 584.43 232.089C584.653 232.312 584.653 232.684 584.43 232.907C573.706 243.616 572.738 254.026 581.674 262.95C581.898 263.173 581.898 263.545 581.674 263.768C581.526 263.917 581.377 263.917 581.228 263.917L581.302 263.991Z" fill="#404041"/>
</svg>

