<svg width="1007" height="540" viewBox="0 0 830 445" fill="none" xmlns="http://www.w3.org/2000/svg">
<path d="M175.792 62.5376L208.77 66.8416L252.59 104.947C269.059 112.006 288.796 125.047 295.345 139.311L178.143 189.087L112.886 184.451C112.886 184.451 145.97 101.76 175.789 62.5376H175.792Z" fill="#F3EEDC"/>
<path d="M185.916 149.122C185.798 149.122 185.681 149.105 185.56 149.072L151.101 139.222C150.414 139.026 150.019 138.309 150.215 137.623C150.411 136.935 151.126 136.539 151.81 136.735L186.268 146.585C186.956 146.781 187.351 147.499 187.155 148.184C186.995 148.751 186.475 149.122 185.912 149.122H185.916Z" fill="#270643"/>
<path d="M295.349 139.311L201.908 178.994L183.854 147.238C216.949 100.114 237.898 96.0494 237.898 96.0494L241.907 95.6497L252.593 104.947C269.062 112.002 288.8 125.043 295.349 139.311Z" fill="#6B3BB5"/>
<path d="M10.4293 247.195L68.1332 304.354L243.623 260.015L269.457 170.443L207.188 141.924L183.85 147.238C141.761 159.768 88.5902 180.064 51.1727 206.663C35.4373 217.848 20.8662 230.793 10.4258 247.199L10.4293 247.195Z" fill="#4AD64D"/>
<path d="M269.461 170.443L248.035 244.736L187.864 245.15C194.861 206.075 86.7848 185.318 56.9448 202.698C93.9137 178.041 143.883 159.137 183.854 147.238L206.476 135.532L269.461 170.443Z" fill="#6B3BB5"/>
<path d="M279.278 120.653C260.174 116.531 242.014 120.743 230.096 132.234C219.986 141.992 215.549 156.053 217.23 172.481C217.547 175.554 218.074 178.705 218.818 181.928C218.979 182.627 218.548 183.319 217.85 183.48C217.754 183.505 217.657 183.512 217.558 183.512C216.97 183.512 216.44 183.112 216.297 182.509C215.592 179.454 215.076 176.46 214.748 173.534C212.747 155.96 217.433 140.857 228.304 130.368C239.756 119.322 256.606 114.643 274.631 117.195C276.219 118.309 277.775 119.461 279.275 120.65L279.278 120.653Z" fill="#270643"/>
<path d="M205.073 221.128C204.82 221.407 204.468 221.549 204.119 221.549C203.809 221.549 203.499 221.439 203.247 221.214C203.118 221.092 189.761 208.973 169.326 197.927C151.952 188.537 126.033 178.173 98.105 179.668C100.042 178.744 101.986 177.831 103.941 176.931C130.178 177.035 154.163 186.792 170.611 195.682C191.31 206.878 204.852 219.176 204.988 219.301C205.518 219.786 205.55 220.6 205.073 221.132V221.128Z" fill="#270643"/>
<path d="M237.331 204.447C237.331 204.447 219.025 191.87 206.003 150.318C206.003 150.318 204.386 190.586 222.87 210.396L232.203 214.126L237.331 204.447Z" fill="#270643"/>
<path d="M270.632 52.2379H258.817C253.387 55.9424 248.334 64.0224 245.806 74.0902C241.999 89.2401 245.343 103.148 253.273 105.147C261.203 107.149 270.718 96.4885 274.524 81.335C277.693 68.7154 275.902 56.9667 270.632 52.2344V52.2379Z" fill="#270643"/>
<path d="M379.602 57.0773C330.252 120.129 322.368 113.487 239.211 86.2779L243.278 48.8296L265.711 50.0644C275.685 51.5455 288.049 53.3977 300.764 55.1929L379.598 57.0773H379.602Z" fill="#4AD64D"/>
<path d="M265.711 50.0644C258.08 49.4862 249.392 59.7824 245.803 74.0901C242.11 88.7939 245.154 102.324 252.582 104.94C252.095 104.797 236.224 100.072 208.713 83.5441L175.792 62.5376C193.041 39.8502 208.061 41.499 265.711 50.0644Z" fill="#F3EEDC"/>
<path d="M265.711 50.0643C258.08 49.4826 249.392 59.7824 245.802 74.0901C242.117 88.7725 245.144 102.277 252.543 104.922C252.098 104.793 248.762 103.769 242.833 101.271V101.264C230.644 91.467 235.323 48.4762 252.447 48.1157C256.606 48.7117 261.014 49.3648 265.715 50.0643H265.711Z" fill="#6B3BB5"/>
<path d="M232.695 98.0409C232.496 98.0409 232.293 97.9945 232.104 97.8982C222.981 93.1801 198.742 78.7047 198.5 78.5584C197.888 78.1908 197.688 77.3985 198.051 76.7847C198.418 76.1708 199.209 75.9709 199.821 76.335C200.063 76.4813 224.234 90.9139 233.29 95.5963C233.923 95.9246 234.173 96.7062 233.845 97.3414C233.617 97.7875 233.165 98.0409 232.695 98.0409Z" fill="#270643"/>
<path d="M379.602 57.0773L380.051 38.5584L336.708 19.4292L298.115 54.8147L316.375 79.5113L354.505 69.2401L379.602 57.0773Z" fill="#4AD64D"/>
<path d="M379.41 29.0973C392.432 29.0081 395.22 35.6213 400.942 48.9118C407.099 63.2087 409.581 67.4914 402.815 68.7833C396.687 69.9504 390.16 63.3265 384.113 51.2423C378.591 40.2001 379.41 29.1009 379.41 29.1009V29.0973Z" fill="#4AD64D"/>
<path d="M361.199 11.6383C375.361 9.98234 379.402 17.5484 386.072 34.3364C392.887 51.492 397.627 59.0902 391.1 61.8489C384.434 64.6683 373.737 58.7333 366.566 37.9945C361.107 22.2058 361.199 11.6418 361.199 11.6418V11.6383Z" fill="#4AD64D"/>
<path d="M377.469 58.6154C377.138 58.6154 376.806 58.4905 376.554 58.2371C372.124 53.7867 368.349 47.12 365.344 38.4191C365.109 37.7446 365.469 37.0058 366.142 36.7738C366.815 36.5383 367.552 36.8987 367.783 37.5732C370.621 45.7817 374.285 52.2949 378.38 56.4098C378.882 56.9166 378.882 57.7339 378.38 58.2407C378.127 58.4941 377.8 58.6189 377.469 58.6189V58.6154Z" fill="#270643"/>
<path d="M392.976 61.9344C392.645 61.9344 392.318 61.8095 392.065 61.5562C391.559 61.0529 391.559 60.2321 392.061 59.7253C394.262 57.509 391.958 51.9701 388.141 42.7945C387.154 40.4283 386.04 37.7481 384.876 34.8109C384.519 33.9151 384.17 33.0479 383.829 32.2057C383.558 31.5454 383.878 30.7888 384.537 30.5175C385.196 30.2499 385.951 30.5675 386.221 31.2277C386.567 32.0771 386.916 32.9516 387.276 33.8509C388.433 36.7667 389.544 39.4362 390.527 41.7953C394.903 52.3127 397.314 58.105 393.895 61.549C393.642 61.8024 393.311 61.9309 392.98 61.9309L392.976 61.9344Z" fill="#270643"/>
<path d="M286.496 57.7161C320.805 2.3877 327.468 -0.42814 343.605 0.0393834C360.206 0.521183 364.575 9.71818 368.977 23.801C372.865 36.2493 378.726 49.6397 371.035 51.1315C357.454 53.7653 346.636 23.6725 346.636 23.6725L309.35 63.4513L286.493 57.7161H286.496Z" fill="#4AD64D"/>
<path d="M369.343 52.5876C355.819 52.5876 345.856 25.3249 345.418 24.1115C345.176 23.4406 345.525 22.6982 346.194 22.4555C346.863 22.2129 347.604 22.5626 347.846 23.2336C347.946 23.512 357.621 50.0002 369.315 50.0002C369.802 50.0002 370.29 49.9538 370.785 49.8574C371.8 49.6612 372.47 49.2257 372.897 48.4941C374.731 45.3535 372.092 37.4127 369.543 29.7325C368.937 27.9124 368.314 26.0316 367.737 24.1829C366.783 21.1315 365.619 17.5947 364.198 14.4969C363.899 13.8474 364.183 13.0801 364.832 12.7803C365.48 12.4805 366.245 12.766 366.544 13.4156C368.026 16.6454 369.226 20.2785 370.205 23.4085C370.775 25.2322 371.394 27.1022 371.996 28.9116C374.976 37.891 377.551 45.6426 375.13 49.7968C374.321 51.1815 373.025 52.0559 371.277 52.3949C370.625 52.5198 369.981 52.5805 369.343 52.5805V52.5876Z" fill="#270643"/>
<path d="M318.822 32.8909C342.064 19.0436 349.449 12.6553 354.683 19.479C360.149 26.6025 349.42 41.6918 330.22 56.8595C310.632 72.3378 309.247 48.3763 309.247 48.3763L318.822 32.8909Z" fill="#4AD64D"/>
<path d="M345.542 66.7704C345.449 66.7704 345.353 66.7596 345.257 66.7382C344.563 66.5812 344.125 65.8888 344.281 65.1893C344.306 65.0751 346.76 53.8082 341.522 46.7454C341.095 46.1708 341.216 45.3606 341.789 44.9359C342.362 44.5112 343.17 44.629 343.594 45.2036C349.548 53.23 346.917 65.2536 346.803 65.7603C346.667 66.3599 346.133 66.7668 345.546 66.7668L345.542 66.7704Z" fill="#270643"/>
<path d="M330.22 58.1551C329.839 58.1551 329.461 57.9873 329.205 57.6626C328.764 57.1022 328.86 56.2886 329.419 55.846C348.608 40.6854 358.351 26.3884 353.657 20.2714C350.114 15.6497 345.346 18.2621 329.362 28.0265C326.453 29.8038 323.152 31.8203 319.48 34.008C318.868 34.372 318.074 34.1722 317.711 33.5583C317.347 32.9445 317.547 32.1486 318.159 31.7846C321.82 29.604 325.114 27.5912 328.016 25.8174C343.983 16.0637 350.588 12.0272 355.705 18.6939C361.502 26.2528 352.044 41.2671 331.017 57.8803C330.782 58.0658 330.498 58.1586 330.22 58.1586V58.1551Z" fill="#270643"/>
<path d="M297.3 195.732C247.508 202.927 152.772 212.131 66.2675 259.112L10.426 247.192C-0.0535744 263.658 -2.42861 284.911 2.38211 303.783C8.63855 328.319 27.7603 349.486 51.5148 358.105C80.4788 368.616 113.196 363.841 142.121 355.814C259.266 323.305 394.13 278.03 394.13 278.03L297.3 195.728V195.732Z" fill="#4AD64D"/>
<path d="M394.13 278.034C394.13 278.034 272.445 318.887 159.85 350.846L159.843 350.839C167.05 336.582 138.524 244.651 118.338 235.322C188.611 208.555 257.39 201.499 297.3 195.732L394.13 278.034Z" fill="#F3EEDC"/>
<path d="M196.481 340.243C195.616 340.504 194.75 340.754 193.885 341.007C195.569 325.768 192.115 302.384 184.167 278.898C175.593 253.526 163.735 234.005 151.229 224.097C152.255 223.787 153.277 223.484 154.302 223.18H154.31C171.398 237.563 182.262 265.2 186.614 278.062C194.458 301.253 197.93 324.469 196.477 340.243H196.481Z" fill="#270643"/>
<path d="M194.651 317.313C194.092 317.313 193.575 316.945 193.412 316.381C193.212 315.696 193.607 314.975 194.291 314.779C321.311 277.734 370.814 263.344 371.301 263.205C371.985 263.009 372.705 263.401 372.9 264.087C373.1 264.772 372.704 265.493 372.021 265.689C371.537 265.828 322.033 280.218 195.014 317.263C194.893 317.299 194.772 317.316 194.654 317.316L194.651 317.313Z" fill="#270643"/>
<path d="M167.417 241.353C166.862 241.353 166.349 240.992 166.181 240.429C165.975 239.743 166.363 239.022 167.047 238.819C268.994 208.184 364.81 205.875 365.768 205.857C366.448 205.835 367.071 206.41 367.085 207.124C367.1 207.838 366.533 208.43 365.821 208.444C364.867 208.462 269.386 210.768 167.791 241.299C167.666 241.335 167.542 241.353 167.421 241.353H167.417Z" fill="#270643"/>
<path d="M185.086 277.595C184.524 277.595 184.007 277.224 183.843 276.653C183.647 275.964 184.046 275.25 184.734 275.054C291.157 244.825 371.205 229.89 372.003 229.743C372.704 229.615 373.377 230.079 373.505 230.782C373.634 231.485 373.171 232.159 372.469 232.288C371.675 232.434 291.734 247.349 185.435 277.545C185.318 277.577 185.2 277.595 185.082 277.595H185.086Z" fill="#270643"/>
<path d="M66.2709 260.407C65.8116 260.407 65.3665 260.161 65.135 259.729C64.7968 259.101 65.0282 258.316 65.6549 257.977C65.9433 257.82 94.8042 242.206 115.325 235.097C116.002 234.861 116.736 235.221 116.967 235.896C117.198 236.571 116.842 237.309 116.169 237.541C95.844 244.583 67.1719 260.097 66.8835 260.254C66.6876 260.361 66.4775 260.411 66.2709 260.411V260.407Z" fill="#270643"/>
<path d="M687.068 194.601C551.239 169.925 498.952 160.329 399.066 139.982C376.75 135.436 328.482 126.81 307.17 124.411C278.399 121.174 242.502 120.471 229.373 154.083C217.522 184.426 233.354 207.416 255.62 217.381C266.701 222.342 277.886 227.013 289.502 230.543C339.493 245.736 426.445 268.916 486.816 283.291L687.068 194.601Z" fill="#4AD64D"/>
<path d="M687.068 194.604L706.464 218.633L613.974 267.324L486.823 283.287C434.229 270.771 361.463 251.56 310.539 236.778C310.521 236.771 310.507 236.767 310.496 236.767C278.014 227.359 298.044 122.413 353.843 131.581C354.192 131.646 354.537 131.706 354.886 131.763C371.693 134.686 388.369 137.809 399.073 139.986C498.955 160.332 551.25 169.929 687.072 194.604H687.068Z" fill="#F3EEDC"/>
<path d="M371.597 134.747C355.199 142.802 339.478 155.147 330.006 170.928C317.597 191.613 316.867 215.147 327.845 240.889C327.966 241.174 327.973 241.478 327.898 241.756C326.948 241.485 326.007 241.221 325.071 240.946C314.175 214.772 315.09 190.775 327.795 169.597C338.04 152.52 353.658 141.496 364.956 135.257C365.75 134.818 366.544 134.39 367.345 133.969C368.78 134.229 370.198 134.486 371.601 134.747H371.597Z" fill="#270643"/>
<path d="M334.532 244.918C334.414 244.918 334.297 244.904 334.179 244.868L309.011 237.745C308.324 237.552 307.925 236.835 308.121 236.149C308.313 235.461 309.026 235.061 309.716 235.257L334.884 242.381C335.572 242.573 335.971 243.291 335.775 243.98C335.614 244.551 335.095 244.922 334.532 244.922V244.918Z" fill="#270643"/>
<path d="M698.029 218.63C697.947 218.63 697.861 218.623 697.779 218.605L349.374 150.032C348.672 149.893 348.217 149.215 348.355 148.512C348.494 147.813 349.171 147.352 349.872 147.491L698.278 216.064C698.979 216.203 699.435 216.881 699.296 217.584C699.175 218.202 698.634 218.63 698.032 218.63H698.029Z" fill="#270643"/>
<path d="M525.256 259.911C525.174 259.911 525.088 259.904 525.006 259.886L320.905 219.715C320.204 219.576 319.748 218.897 319.887 218.194C320.026 217.495 320.702 217.035 321.404 217.174L525.505 257.345C526.207 257.484 526.662 258.162 526.523 258.865C526.402 259.483 525.861 259.911 525.259 259.911H525.256Z" fill="#270643"/>
<path d="M529.707 221.139C529.625 221.139 529.539 221.132 529.457 221.114L324.377 180.75C323.675 180.61 323.22 179.932 323.358 179.229C323.497 178.526 324.174 178.069 324.875 178.209L529.956 218.573C530.658 218.712 531.113 219.39 530.974 220.093C530.853 220.71 530.312 221.139 529.71 221.139H529.707Z" fill="#270643"/>
<path d="M612.176 245.264C602.42 238.337 577.437 242.352 566.775 314.843L598.058 314.629L630.233 268.551L612.176 245.264Z" fill="#270643"/>
<path d="M522.984 346.392C592.108 317.355 624.524 237.336 595.388 167.664C566.252 97.9921 486.597 65.0509 417.474 94.0879C348.35 123.125 315.934 203.144 345.07 272.816C374.206 342.488 453.861 375.429 522.984 346.392Z" fill="#F3EEDC"/>
<path d="M604.514 242.763C604.449 242.763 604.382 242.759 604.318 242.748C603.613 242.641 603.128 241.981 603.239 241.274C605.333 227.602 605.325 213.751 603.217 200.104C603.107 199.397 603.591 198.737 604.296 198.626C605.001 198.516 605.66 199.001 605.77 199.708C607.918 213.616 607.925 227.734 605.792 241.667C605.692 242.306 605.144 242.766 604.517 242.766L604.514 242.763Z" fill="#270643"/>
<path d="M353.807 291.499C353.366 291.499 352.938 291.275 352.696 290.868C349.374 285.275 346.408 279.376 343.876 273.327C339.977 264.005 337.093 254.283 335.301 244.429C335.173 243.726 335.64 243.052 336.341 242.923C337.043 242.795 337.716 243.262 337.844 243.965C339.603 253.634 342.434 263.177 346.258 272.327C348.74 278.262 351.653 284.055 354.915 289.544C355.281 290.158 355.079 290.953 354.466 291.317C354.26 291.442 354.032 291.499 353.807 291.499Z" fill="#270643"/>
<path d="M485.217 144.322L415.592 152.674L386.98 216.774L427.987 272.531L497.609 264.183L526.224 200.079L485.217 144.322Z" fill="#F3EEDC"/>
<path d="M415.592 153.965C414.947 153.965 414.389 153.483 414.31 152.827C414.225 152.117 414.73 151.474 415.439 151.389L485.061 143.041C485.777 142.955 486.41 143.462 486.496 144.172C486.581 144.882 486.076 145.525 485.367 145.611L415.745 153.958C415.692 153.965 415.642 153.969 415.588 153.969L415.592 153.965Z" fill="#270643"/>
<path d="M497.609 265.475C497.434 265.475 497.253 265.439 497.082 265.361C496.43 265.068 496.138 264.305 496.43 263.651L525.045 199.547C525.337 198.894 526.099 198.601 526.751 198.894C527.403 199.187 527.695 199.95 527.403 200.603L498.788 264.708C498.574 265.19 498.1 265.475 497.609 265.475Z" fill="#270643"/>
<path d="M427.987 273.826C427.592 273.826 427.2 273.644 426.947 273.302L385.941 217.548C385.517 216.974 385.641 216.164 386.215 215.739C386.788 215.314 387.596 215.436 388.02 216.014L429.027 271.767C429.451 272.342 429.326 273.152 428.753 273.576C428.521 273.748 428.254 273.83 427.987 273.83V273.826Z" fill="#270643"/>
<path d="M544.669 314.187L534.243 341.053C530.611 342.991 526.854 344.776 522.98 346.407C487.66 361.242 449.598 359.897 416.927 345.736H416.92L408.064 333.691L427.991 272.534L497.616 264.183L544.673 314.19L544.669 314.187Z" fill="#270643"/>
<path d="M604.022 197.067V197.074L594.397 206.485L526.228 200.075L485.217 144.326L514.025 91.0674C549.434 103.359 579.723 130.207 595.394 167.681C599.428 177.334 602.284 187.177 604.022 197.067Z" fill="#270643"/>
<path d="M415.595 152.674L386.977 216.774L336.202 242.045C327.813 191.303 348.705 139.815 389.968 109.64L415.599 152.674H415.595Z" fill="#270643"/>
<path d="M553.255 435.09C561.494 442.217 572.889 445.654 595.633 444.115L639.296 396.189L747.781 289.94L824.215 224.497C812.29 196.542 710.581 162.491 657.011 189.115C657.011 189.115 665.757 199.297 659.066 215.064C650.334 235.646 612.173 245.257 612.173 245.257C612.173 245.257 602.455 265.846 605.589 286.596C605.589 286.596 581.841 295.436 566.772 314.836C540.46 348.701 524.878 379.447 531.786 404.672C533.987 412.713 542.729 426.489 553.255 435.083V435.09Z" fill="#6B3BB5"/>
<path d="M678.825 210.375C671.878 228.823 647.112 244.237 608.918 253.947C609.246 252.891 609.577 251.91 609.894 251.025C646.325 241.521 669.862 226.845 676.403 209.458C679.669 200.782 678.387 191.902 672.679 183.801C672.59 183.673 672.519 183.53 672.487 183.38C673.338 183.148 674.203 182.927 675.075 182.72C681.054 191.449 682.343 201 678.825 210.375Z" fill="#270643"/>
<path d="M824.222 224.497L747.781 289.943L639.296 396.192L595.636 444.119C572.893 445.657 561.498 442.217 553.255 435.09C542.729 426.499 533.99 412.72 531.793 404.683C524.878 379.454 540.464 348.705 566.779 314.843C581.848 295.439 605.596 286.606 605.596 286.606C615.734 282.191 629.144 280.268 629.144 280.268C629.144 280.268 613.757 242.813 693.83 240.375C693.83 240.375 684.447 177.934 776.741 192.705C800.888 201.524 819.529 213.491 824.226 224.501L824.222 224.497Z" fill="#270643"/>
<path d="M824.222 224.497L747.781 289.943L639.296 396.193L595.636 444.119C572.893 445.657 561.498 442.217 553.255 435.09C542.729 426.499 533.556 412.681 531.359 404.644C526.744 383.398 525.551 353.184 626.922 316.31C643.295 310.35 664.927 300.803 684.683 291.61C700.404 284.294 713.949 273.027 724.112 258.951C735.429 243.277 751.869 222.424 766.964 210.446C783.945 196.985 799.56 202.292 809.583 209.005C809.608 209.019 809.633 209.037 809.665 209.062C811.61 210.368 813.337 211.724 814.821 213.002C814.975 213.13 815.128 213.259 815.274 213.394C818.478 216.214 820.469 218.587 820.9 219.115C820.939 219.162 820.964 219.194 820.982 219.212C820.982 219.212 820.988 219.216 821 219.226C822.399 220.993 823.489 222.756 824.229 224.497H824.222Z" fill="#F3EEDC"/>
<path d="M787.129 313.605C772.248 323.477 756.527 331.178 741.564 340.643C729.379 348.348 722.798 363.826 715.466 375.739C709.099 386.085 702.654 396.417 693.585 404.629C684.611 412.752 674.118 419.016 663.382 424.494C649.565 431.542 635.044 437.16 619.936 440.639C596.79 445.968 554.668 449.333 547.112 418.933C543.918 406.082 548.159 391.942 555.876 381.507C568.381 364.597 588.707 354.594 607.273 345.889C629.005 335.7 651.485 327.231 673.405 317.481C690.665 309.801 707.924 300.7 723.649 290.186C731.508 284.933 738.031 276.506 744.701 269.783C754.96 259.444 764.724 248.612 775.274 238.562C784.426 229.843 795.126 218.33 808.85 215.639C822.634 212.941 828.313 231.478 829.097 241.881C831.28 270.946 810.246 298.27 787.121 313.605H787.129Z" fill="#B6ED7C"/>
<path d="M720.195 367.609C718.61 370.411 717.054 373.166 715.466 375.743C709.099 386.082 702.661 396.417 693.592 404.629C684.618 412.752 674.121 419.019 663.388 424.49C660.7 425.861 657.99 427.188 655.252 428.473C655.22 428.48 655.188 428.498 655.156 428.512C615.52 445.943 571.426 453.791 557.585 425.029C544.958 398.776 571.956 368.858 611.396 352.595C661.822 331.803 693.417 313.973 699.211 329.893C704.855 345.397 684.967 376.11 609.652 408.552C604.759 410.657 602.017 423.198 622.684 417.813C644.662 412.085 695.689 394.597 720.195 367.606V367.609Z" fill="#270643"/>
<path d="M787.129 313.605C777.147 320.222 766.792 325.868 756.534 331.721C785.612 306.303 796.9 290.689 797.338 282.645C797.491 279.868 794.094 278.373 792.053 280.257C782.46 289.122 751.961 315.157 733.858 305.996C721.238 299.608 733.303 290.489 749.344 274.654C765.393 258.808 793.827 219.276 815.569 221.371C821.302 221.92 825.045 225.289 827.117 231.524C827.135 231.574 827.149 231.62 827.16 231.67C827.423 232.456 827.651 233.291 827.851 234.176C827.875 234.272 827.901 234.376 827.925 234.472C828.164 235.55 828.388 236.656 828.598 237.791C828.605 237.841 828.616 237.895 828.623 237.945C828.858 239.333 829.019 240.668 829.108 241.885C831.287 270.95 810.253 298.269 787.129 313.608V313.605Z" fill="#270643"/>
<path d="M613.718 383.573C614.936 386.567 609.413 391.657 601.38 394.944C593.346 398.23 585.847 398.466 584.626 395.475C583.408 392.481 588.931 387.392 596.964 384.105C604.997 380.818 612.497 380.582 613.718 383.573Z" fill="#6B3BB5"/>
<path d="M680.174 350.732C681.684 353.587 676.695 359.205 669.029 363.277C661.362 367.349 653.924 368.334 652.414 365.479C650.904 362.624 655.893 357.006 663.559 352.934C671.226 348.862 678.665 347.877 680.174 350.732Z" fill="#6B3BB5"/>
<path d="M774.146 282.245C775.794 284.665 771.867 290.229 765.372 294.672C758.877 299.115 752.279 300.757 750.63 298.337C748.981 295.918 752.909 290.354 759.404 285.91C765.899 281.467 772.497 279.826 774.146 282.245Z" fill="#6B3BB5"/>
<path d="M805.267 257.268C810.794 251.663 813.588 245.449 811.508 243.389C809.428 241.329 803.261 244.203 797.735 249.808C792.208 255.413 789.414 261.627 791.494 263.687C793.574 265.747 799.741 262.873 805.267 257.268Z" fill="#6B3BB5"/>
<path d="M618.272 444.815C613.316 444.012 609.431 433.477 609.431 433.477L645.239 420.272C645.239 420.272 649.245 431.364 646.065 434.676L624.5 440.422L618.269 444.815H618.272Z" fill="#270643"/>
<path d="M646.602 433.066C647.304 434.958 641.276 438.944 633.139 441.967C625.002 444.99 617.841 445.907 617.14 444.016C616.438 442.124 622.467 438.138 630.604 435.115C638.74 432.092 645.901 431.175 646.602 433.066Z" fill="#6B3BB5"/>
<path d="M705.432 395.354C705.371 390.054 701.7 385.407 701.7 385.407L673.676 404.64L672.771 413.541C672.771 413.541 679.829 416.721 682.991 416.025L705.439 395.354H705.432Z" fill="#270643"/>
<path d="M705.278 394.993C706.379 396.239 701.999 401.917 695.497 407.677C688.995 413.437 682.834 417.095 681.738 415.85C680.637 414.604 685.017 408.926 691.519 403.166C698.021 397.406 704.182 393.748 705.278 394.993Z" fill="#6B3BB5"/>
<path d="M829.834 269.932C828.435 266.506 822.452 262.331 822.452 262.331L806.037 290.454C806.037 290.454 814.237 292.784 816.206 291.863L829.837 269.932H829.834Z" fill="#270643"/>
<path d="M829.574 269.636C830.963 270.543 828.848 276.264 824.849 282.406C820.85 288.551 816.481 292.795 815.092 291.888C813.704 290.982 815.819 285.261 819.818 279.119C823.816 272.973 828.186 268.73 829.574 269.636Z" fill="#6B3BB5"/>
<path d="M793.527 312.602C793.542 307.927 790.953 303.327 790.953 303.327L774.833 316.728L767.148 324.469C767.148 324.469 770.061 327.627 772.315 327.973L793.527 312.599V312.602Z" fill="#270643"/>
<path d="M793.399 312.263C794.361 313.619 790.301 318.163 784.333 322.413C778.365 326.664 772.75 329.008 771.788 327.656C770.827 326.303 774.886 321.756 780.854 317.506C786.822 313.255 792.438 310.911 793.399 312.263Z" fill="#6B3BB5"/>
<path d="M649.191 281.471C649.109 281.471 649.024 281.464 648.942 281.446C648.857 281.428 640.175 279.754 630.504 281.196C629.799 281.307 629.14 280.814 629.037 280.108C628.934 279.401 629.418 278.741 630.123 278.637C640.257 277.124 649.074 278.833 649.44 278.908C650.138 279.048 650.594 279.726 650.455 280.429C650.334 281.046 649.793 281.471 649.191 281.471Z" fill="#270643"/>
<path d="M281.61 66.7704C281.393 66.7704 281.176 66.7168 280.973 66.5991C280.353 66.2457 280.136 65.457 280.489 64.836C280.521 64.7825 283.64 59.2935 286.891 54.629C287.301 54.0437 288.105 53.9009 288.689 54.3078C289.273 54.7182 289.416 55.5248 289.01 56.1101C285.826 60.6783 282.764 66.0601 282.732 66.1136C282.493 66.5312 282.059 66.7668 281.607 66.7668L281.61 66.7704Z" fill="#270643"/>
<path d="M151.097 86.4264C158.851 84.1951 163.193 75.6027 160.796 67.2347C158.398 58.8667 150.17 53.8919 142.416 56.1232C134.662 58.3545 130.32 66.9469 132.717 75.3149C135.114 83.6829 143.343 88.6577 151.097 86.4264Z" fill="#4AD64D"/>
<path d="M163.999 63.9868C164.918 67.1988 163.251 70.5 160.274 71.3565C157.298 72.213 154.139 70.3037 153.217 67.0881C152.298 63.8761 153.965 60.5749 156.942 59.7184C159.918 58.8619 163.077 60.7712 163.999 63.9868Z" fill="#4AD64D"/>
<path d="M142.698 79.7505C143.617 82.9625 141.95 86.2637 138.973 87.1202C135.996 87.9768 132.838 86.0674 131.916 82.8518C130.997 79.6398 132.663 76.3386 135.64 75.4821C138.617 74.6255 141.776 76.5349 142.698 79.7505Z" fill="#4AD64D"/>
<path d="M143.435 67.3663C144.022 67.5769 144.652 67.659 145.268 67.759C145.628 67.8196 145.984 67.8874 146.344 67.9267C146.668 67.9624 146.996 68.0016 147.32 68.048L147.102 68.0195C148.021 68.1444 148.94 68.2907 149.848 68.4656C150.756 68.6405 151.596 68.8689 152.419 69.2115L152.187 69.1151C152.65 69.3114 153.102 69.5505 153.501 69.8575L153.302 69.704C153.519 69.8753 153.715 70.068 153.886 70.2857L153.733 70.0858C153.882 70.2821 154.007 70.4963 154.103 70.7211L154.003 70.4855C154.11 70.7496 154.181 71.0245 154.221 71.3064L154.185 71.0459C154.228 71.3921 154.224 71.7383 154.178 72.0809L154.213 71.8203C154.149 72.2736 154.014 72.709 153.84 73.1301L153.936 72.8981C153.551 73.7903 153.01 74.6362 152.422 75.4035L152.568 75.2143C152.013 75.9352 151.379 76.5955 150.699 77.2022C150.368 77.4984 150.026 77.7804 149.68 78.0587C149.638 78.0944 149.591 78.1301 149.549 78.1658C149.488 78.2122 149.502 78.2015 149.595 78.1301C149.574 78.148 149.549 78.1658 149.527 78.1836C149.435 78.255 149.342 78.3228 149.246 78.3906C149.15 78.4584 149.054 78.5227 148.961 78.5905C148.804 78.7047 148.705 78.8439 148.594 78.9974C148.349 79.3328 148.68 79.8075 149.057 79.8039C149.178 79.8039 149.299 79.8039 149.417 79.7789C149.552 79.7468 149.684 79.6754 149.812 79.6183C149.983 79.5434 150.154 79.4649 150.325 79.3792C150.656 79.2186 150.984 79.0473 151.286 78.8403C151.952 78.3906 152.575 77.8874 153.145 77.32C153.715 76.7525 154.235 76.1244 154.705 75.4642C155.21 74.7575 155.627 73.9867 155.901 73.1587C156.19 72.2772 156.261 71.3135 156.04 70.407C155.933 69.9752 155.748 69.5362 155.492 69.1722C155.196 68.7582 154.865 68.4334 154.463 68.1301C153.815 67.6376 153.031 67.3378 152.255 67.1058C151.361 66.8382 150.446 66.6847 149.524 66.5633C148.602 66.442 147.758 66.4206 146.875 66.392C145.938 66.3635 145.001 66.4278 144.079 66.5955C143.858 66.6348 143.648 66.6847 143.438 66.7597C143.139 66.8631 143.143 67.2593 143.438 67.3663H143.435Z" fill="#270643"/>
<path d="M155.749 59.1972C152.921 56.8953 148.986 56.2922 145.401 56.9203C142.819 57.3736 140.316 58.4371 138.325 60.1501C136.335 61.8632 134.885 64.2436 134.476 66.8418C134.358 67.5913 134.326 68.3693 134.533 69.0974C134.825 70.1216 135.558 70.9603 135.936 71.956C136.652 73.8297 135.879 76.1601 134.188 77.2344C133.037 77.966 131.62 78.1195 130.256 78.1445C128.957 78.1694 127.589 78.0802 126.5 77.3736C125.41 76.6669 124.737 75.1644 125.342 74.0152C125.869 73.0124 127.24 72.3807 127.158 71.2494C127.098 70.4499 126.311 69.9325 125.595 69.5791C124.463 69.0188 123.281 68.5441 122.252 67.8089C121.223 67.0738 120.347 66.0245 120.147 64.7754C119.98 63.719 120.343 62.5912 121.094 61.8311C121.846 61.0709 122.971 60.6997 124.025 60.8568C124.837 60.9781 125.606 61.3957 126.425 61.36C127.6 61.31 128.618 60.1858 128.558 59.0117C128.519 58.2908 128.141 57.6448 127.888 56.9702C127.126 54.9681 127.518 52.527 129.006 50.9888C130.495 49.4506 133.052 49.0117 134.878 50.118C135.922 50.7497 136.659 51.7775 137.613 52.5342C138.567 53.2908 139.974 53.7511 140.982 53.0623C141.445 52.7447 141.74 52.2379 142.139 51.8382C142.979 50.9924 144.226 50.6855 145.418 50.6426C147.758 50.5534 150.119 51.3564 151.921 52.8589C153.722 54.3614 154.944 56.5384 155.282 58.8618" fill="#270643"/>
</svg>

