<svg width="513" height="540" viewBox="0 0 695 732" fill="none" xmlns="http://www.w3.org/2000/svg">
<path d="M301.548 2.18916C582.279 -29.7908 795.422 295.075 645.656 553.765C520.959 769.076 230.852 795.621 77.1239 598.833C-92.3977 381.78 33.1517 32.7443 301.598 2.18916H301.548ZM296.484 12.6381C153.386 29.6308 37.1629 158.87 13.096 305.102C-41.5059 636.565 328.373 855.254 570.747 633.135C823.751 401.253 626.753 -26.6245 296.484 12.6381Z" fill="#270644"/>
<path d="M296.485 12.6406C626.753 -26.5692 823.752 401.309 570.748 633.137C328.373 855.256 -41.4553 636.568 13.0965 305.105C37.1634 158.82 153.387 29.6333 296.485 12.6406ZM331.833 65.1491C140.1 69.6875 14.701 280.618 76.7737 467.379C156.495 707.282 472.474 737.574 592.408 518.885C705.472 312.757 553.45 59.9246 331.833 65.1491Z" fill="#7FDD24"/>
<path d="M331.833 65.1504C553.499 59.926 705.522 312.758 592.408 518.887C472.424 737.575 156.495 707.284 76.7733 467.381C14.7007 280.62 140.099 69.6889 331.833 65.1504ZM311.576 75.9687C-36.3917 113.173 9.53608 680.95 360.161 659.525C739.065 636.358 682.007 36.3895 311.576 75.9687Z" fill="#270644"/>
<path d="M311.576 75.9633C682.006 36.3841 739.115 636.3 360.161 659.519C9.53568 680.998 -36.4422 113.168 311.576 75.9633ZM583.382 330.115C585.689 356.026 583.382 387.689 583.382 414.445C583.382 473.708 502.758 563.632 454.674 590.124C242.484 706.909 15.3519 447.322 143.057 230.85C166.623 190.901 250.255 116.545 295.08 116.545H372.796C373.448 104.197 374.501 107.205 365.376 105.991C136.389 75.4884 3.51895 396.186 179.659 559.516C366.83 733.084 649.767 544.74 583.382 295.76C562.173 291.433 582.68 321.618 583.432 330.062L583.382 330.115ZM367.782 248.318L344.768 201.772L279.988 225.889C267.503 224.887 251.91 162.774 222.177 219.451L241.681 255.6C199.514 296.604 192.996 360.881 245.793 395.183C289.815 423.785 319.749 391.806 339.203 396.872C347.125 398.93 383.877 450.911 382.774 456.346L317.643 483.207L337.699 525.583L417.47 501.783L440.334 537.721L472.072 514.818L449.259 477.772C530.986 387.689 454.825 285.733 348.429 332.331L307.715 272.224L367.782 248.423V248.318Z" fill="#B8EF7D"/>
<path d="M367.783 248.319L307.716 272.119L348.429 332.227C454.875 285.576 530.987 387.585 449.259 477.667L472.073 514.713L440.334 537.616L417.471 501.679L337.699 525.479L317.643 483.103L382.774 456.242C383.877 450.806 347.125 398.825 339.203 396.767C319.799 391.701 289.816 423.681 245.793 395.079C192.996 360.777 199.514 296.5 241.682 255.496L222.178 219.347C251.86 162.669 267.504 224.835 279.988 225.785L344.768 201.668L367.783 248.213V248.319ZM357.755 243.094L339.454 212.011L275.676 237.395L252.412 208.528L232.456 211.589L251.76 255.601C189.186 313.598 214.456 407.85 304.757 395.606C316.54 394.023 329.275 384.26 340.105 385.421C354.846 387.005 388.089 448.748 397.866 464.527L332.785 485.847L342.713 515.03L414.763 491.652L445.449 527.801L457.332 510.28L438.73 473.235C521.21 394.129 447.705 291.698 350.133 341.515C342.763 340.776 291.37 266.42 297.587 258.979L357.755 243.042V243.094Z" fill="#270644"/>
<path d="M583.383 330.118C582.631 321.675 562.124 291.489 583.333 295.816C649.768 544.796 366.78 733.14 179.61 559.572C3.46954 396.189 136.339 75.492 365.326 106.047C374.502 107.261 373.399 104.253 372.747 116.602H295.031C250.156 116.602 166.573 190.958 143.008 230.906C15.3025 447.431 242.384 707.018 454.625 590.18C502.759 563.689 583.333 473.712 583.333 414.501C583.333 387.693 585.639 356.03 583.333 330.171L583.383 330.118Z" fill="#270644"/>
<path d="M357.754 243.098L297.587 259.035C291.42 266.423 342.762 340.779 350.133 341.571C447.654 291.754 521.159 394.185 438.73 473.29L457.331 510.336L445.448 527.857L414.763 491.708L342.712 515.086L332.785 485.903L397.866 464.583C388.039 448.804 354.846 387.06 340.105 385.477C329.275 384.316 316.54 394.079 304.757 395.662C214.456 407.906 189.185 313.654 251.759 255.657L232.456 211.645L252.411 208.584L275.676 237.451L339.453 212.067L357.754 243.15V243.098ZM281.893 286.107C258.679 272.228 237.018 347.006 287.408 357.139C300.044 359.672 310.272 353.233 322.657 353.866C325.464 351.175 285.253 288.112 281.943 286.16L281.893 286.107ZM367.782 374.975C380.969 389.171 397.665 428.012 410.2 438.461C428.902 454.134 448.958 407.008 428.05 382.68C410.601 362.363 389.593 370.859 367.782 374.975Z" fill="#7FDD24"/>
<path d="M367.782 374.966C389.593 370.902 410.601 362.406 428.05 382.671C448.958 406.999 428.902 454.124 410.2 438.451C397.716 428.002 381.019 389.162 367.782 374.966ZM421.732 386.734C415.615 380.296 390.796 376.971 382.874 382.829L422.885 432.91C426.796 419.77 432.161 397.711 421.732 386.734Z" fill="#270644"/>
<path d="M281.894 286.105C285.203 288.058 325.465 351.121 322.607 353.812C310.223 353.179 299.995 359.617 287.359 357.084C236.969 346.952 258.629 272.173 281.844 286.053L281.894 286.105ZM307.566 348.535L274.975 295.974C246.596 326.371 273.872 351.332 307.566 348.535Z" fill="#270644"/>
<path d="M421.733 386.741C432.162 397.717 426.797 419.776 422.886 432.916L382.875 382.835C390.797 376.978 415.616 380.302 421.733 386.741Z" fill="#B8EF7D"/>
<path d="M307.565 348.527C273.871 351.324 246.646 326.31 274.974 295.966L307.565 348.527Z" fill="#B8EF7D"/>
</svg>
