<svg width="58" height="26" viewBox="0 0 58 26" fill="none" xmlns="http://www.w3.org/2000/svg">
<path d="M42.846 0.00900369C43.2289 -0.00987973 43.745 0.00677316 44.1382 0.00696356L46.6392 0.00706801L50.165 0.00678773C50.7876 0.0067679 51.4435 -0.00501014 52.0619 0.010035C52.2673 0.12055 52.7118 0.586451 52.9205 0.752385C53.0176 0.829561 53.2775 1.03565 53.3475 1.12096C53.4682 1.26841 53.5913 1.50111 53.7035 1.67066C53.8343 1.52648 53.9918 1.40892 54.1672 1.32441C54.8369 0.99646 55.8175 1.02575 56.5148 1.26373C56.9598 1.41561 57.235 1.6266 57.4468 2.05089C57.7515 2.66102 57.8334 3.9449 57.6968 4.59395C57.3197 6.28953 56.3221 7.83675 55.3809 9.26997C54.1269 11.1744 52.6625 12.9287 51.2095 14.6817C50.9834 15.0013 50.5987 15.1873 50.3324 15.4421C49.9924 15.7673 49.6963 16.3664 49.3854 16.742C49.3438 16.7923 49.5352 17.174 49.5377 17.3016C49.5442 17.6419 49.3788 17.9266 49.2687 18.2415C49.7351 18.5081 49.8764 18.7954 50.0214 19.292C50.0572 19.4123 50.0826 19.5084 50.1574 19.6117C50.2803 19.7815 50.556 19.7946 50.6625 19.9642C50.7518 20.1173 50.921 20.2042 51.0411 20.3315C51.2025 20.5027 51.4129 20.6734 51.4179 20.9236C51.5313 20.9245 51.6203 20.9258 51.7327 20.9151C51.7449 21.1007 51.7383 21.3239 51.7377 21.5122L51.7372 22.4667C51.7373 23.1119 51.7574 23.8903 51.7302 24.524C51.8678 24.6622 52.0376 24.7746 52.0742 24.9802C52.0882 25.0583 52.104 25.4554 52.0726 25.5039C50.6104 25.4811 49.0997 25.4993 47.6343 25.4994C46.0466 25.4997 44.426 25.4829 42.8406 25.5028C42.8406 25.351 42.8363 25.1998 42.8391 25.0477C42.8439 24.7797 43.0317 24.6704 43.189 24.4929C43.1623 23.8757 43.1836 23.097 43.1837 22.4672L43.1829 21.5254C43.182 21.3411 43.1741 21.1099 43.1854 20.9291C43.285 20.9226 43.4009 20.9229 43.5019 20.9205C43.5149 20.6023 43.8493 20.3519 44.0598 20.1481C44.1444 20.0663 44.2465 19.9471 44.3366 19.8792C44.4711 19.7779 44.6564 19.7262 44.763 19.581C44.8545 19.4651 44.8941 19.3401 44.9319 19.1996C45.0598 18.725 45.2291 18.4754 45.6611 18.2336C45.6511 18.2114 45.6414 18.189 45.6319 18.1666C45.3479 17.4994 45.2985 17.4341 45.5623 16.7752C45.2949 16.3762 44.9515 15.8736 44.6494 15.4996C44.5492 15.3756 44.2036 15.157 44.0597 15.0249C43.7886 14.776 43.5979 14.5365 43.3656 14.2536L42.6444 13.3777C40.9483 11.3273 37.3556 6.76405 37.1803 4.16876C37.1305 3.43076 37.1838 2.28264 37.6978 1.70253C38.0649 1.28829 38.686 1.12885 39.2209 1.0968C39.9836 1.05111 40.6261 1.13436 41.2207 1.66182C41.3428 1.49619 41.4253 1.28384 41.5656 1.12213C41.6991 0.986161 41.8869 0.822501 42.0399 0.709335C42.2409 0.560748 42.6387 0.101927 42.846 0.00900369ZM41.3865 6.13518C41.1916 6.13737 40.9614 6.13405 40.7695 6.14408L40.7731 4.99601C40.7731 4.79997 40.7823 4.45915 40.7504 4.27548C41.0627 4.26153 41.4025 4.27028 41.7183 4.26688C41.4306 3.66883 41.2851 2.9995 40.8954 2.44527C40.8913 2.43935 40.896 2.36906 40.897 2.35749C40.7114 2.15738 40.2616 1.9462 39.9982 1.85888C39.512 1.71119 38.7957 1.80449 38.4112 2.15354C38.0922 2.44305 38.0173 2.76098 37.9732 3.16702C37.811 4.65952 38.5846 6.14508 39.2749 7.43848C40.1932 9.14288 41.2249 10.7837 42.3632 12.3497C42.6954 12.8031 43.0607 13.2519 43.4001 13.6998C43.551 13.8988 43.7904 14.1429 43.9264 14.342C43.9667 14.4161 44.0131 14.454 44.0762 14.5049C44.0376 14.4421 44.006 14.3954 43.9634 14.3358C43.3746 13.3491 42.8261 12.3386 42.3193 11.3072C41.9088 10.4864 41.5102 9.68123 41.242 8.79581C41.1713 8.56227 41.1056 8.15384 41.0894 7.91247C41.0714 7.64317 41.1612 7.32391 41.2144 7.05463C41.276 6.74284 41.3375 6.45121 41.3865 6.13518ZM51.0085 14.3194C51.0719 14.2529 51.1836 14.1069 51.244 14.0313C51.4323 13.7953 51.6165 13.554 51.8033 13.3161C53.1369 11.614 54.3317 9.80781 55.3766 7.91478C55.9009 6.96969 56.405 6.00888 56.7491 4.97958C56.896 4.54023 56.9897 3.98921 56.9795 3.52894C56.9863 3.38808 56.9482 3.23455 56.944 3.09767C56.913 2.10653 55.9633 1.65251 55.0744 1.82285C54.7922 1.87692 54.2265 2.1454 54.0234 2.35528C54.0275 2.37218 54.0418 2.43402 54.0346 2.4461C53.9406 2.60705 53.8299 2.76454 53.7522 2.93343C53.5495 3.37339 53.4021 3.83089 53.2069 4.27274C53.4946 4.2688 53.8926 4.25624 54.1716 4.27427C54.1397 4.4861 54.1502 4.82536 54.1503 5.05009C54.1483 5.41468 54.1502 5.7793 54.156 6.14387C53.9448 6.13639 53.7387 6.13907 53.5277 6.14108C53.5609 6.27824 53.6114 6.56637 53.6372 6.71306C53.7121 7.14878 53.8552 7.5591 53.8286 8.00566C53.7995 8.49324 53.6653 8.86114 53.5079 9.31032C53.2719 9.98378 52.966 10.5911 52.6494 11.2271C52.1398 12.2756 51.5832 13.3005 50.9813 14.2989C50.9366 14.3677 50.8877 14.4383 50.8519 14.5118C50.9276 14.4342 50.9475 14.4085 51.0085 14.3194Z" fill="#F5F0DE"/>
<path d="M50.9814 14.2986L51.0086 14.3191C50.9475 14.4082 50.9277 14.4338 50.8519 14.5115C50.8878 14.4379 50.9367 14.3673 50.9814 14.2986Z" fill="#C6D747" fill-opacity="0.113725"/>
<path d="M43.9635 14.3357C44.0061 14.3953 44.0377 14.442 44.0763 14.5048C44.0131 14.4539 43.9667 14.4159 43.9265 14.3419L43.9635 14.3357Z" fill="#C6D747" fill-opacity="0.25098"/>
<path d="M2.27423 9.8877C2.05417 9.8877 1.84924 9.85194 1.65943 9.78042C1.47238 9.70615 1.30871 9.60299 1.16842 9.47096C1.03088 9.33617 0.923604 9.178 0.846582 8.99645C0.769561 8.8149 0.73105 8.61684 0.73105 8.40228C0.73105 8.18772 0.769561 7.98967 0.846582 7.80812C0.923604 7.62657 1.03226 7.46977 1.17255 7.33774C1.31284 7.20295 1.47651 7.09979 1.66356 7.02827C1.85061 6.954 2.05554 6.91687 2.27836 6.91687C2.51492 6.91687 2.73086 6.95813 2.92616 7.04065C3.12147 7.12043 3.28651 7.24008 3.4213 7.39963L3.0747 7.72559C2.97017 7.61281 2.85327 7.52891 2.72398 7.4739C2.59469 7.41613 2.45441 7.38725 2.30311 7.38725C2.15182 7.38725 2.01291 7.41201 1.88637 7.46152C1.76259 7.51103 1.65393 7.58118 1.56041 7.67195C1.46963 7.76273 1.39811 7.87001 1.34585 7.99379C1.29633 8.11758 1.27158 8.25374 1.27158 8.40228C1.27158 8.55082 1.29633 8.68699 1.34585 8.81077C1.39811 8.93456 1.46963 9.04184 1.56041 9.13261C1.65393 9.22339 1.76259 9.29353 1.88637 9.34305C2.01291 9.39256 2.15182 9.41732 2.30311 9.41732C2.45441 9.41732 2.59469 9.38981 2.72398 9.33479C2.85327 9.27703 2.97017 9.19038 3.0747 9.07485L3.4213 9.40494C3.28651 9.56173 3.12147 9.68139 2.92616 9.76391C2.73086 9.84644 2.51355 9.8877 2.27423 9.8877ZM3.46633 9.84644L4.76607 6.95813H5.29422L6.59808 9.84644H6.03693L4.91874 7.24283H5.1333L4.01924 9.84644H3.46633ZM4.06463 9.178L4.20904 8.75713H5.76873L5.91314 9.178H4.06463ZM6.96541 9.84644V6.95813H7.4069L8.66951 9.06659H8.43844L9.68041 6.95813H10.1219L10.126 9.84644H9.61852L9.6144 7.75448H9.72167L8.66538 9.51634H8.42606L7.35326 7.75448H7.47705V9.84644H6.96541ZM10.9062 9.84644V6.95813H12.0945C12.3504 6.95813 12.569 6.99939 12.7506 7.08191C12.9349 7.16444 13.0766 7.28272 13.1756 7.43676C13.2746 7.59081 13.3241 7.77373 13.3241 7.98554C13.3241 8.19735 13.2746 8.38028 13.1756 8.53432C13.0766 8.68836 12.9349 8.80665 12.7506 8.88917C12.569 8.97169 12.3504 9.01295 12.0945 9.01295H11.2033L11.4426 8.76126V9.84644H10.9062ZM11.4426 8.81902L11.2033 8.55908H12.0698C12.3063 8.55908 12.4838 8.50956 12.602 8.41054C12.7231 8.30876 12.7836 8.16709 12.7836 7.98554C12.7836 7.80124 12.7231 7.65958 12.602 7.56055C12.4838 7.46152 12.3063 7.41201 12.0698 7.41201H11.2033L11.4426 7.14793V8.81902ZM14.3549 8.15884H15.7908V8.60034H14.3549V8.15884ZM14.3962 9.39669H16.026V9.84644H13.8598V6.95813H15.9682V7.40788H14.3962V9.39669ZM17.9774 9.8877C17.7518 9.8877 17.5441 9.85056 17.3543 9.77629C17.1645 9.70202 16.9995 9.59887 16.8592 9.46683C16.7189 9.33204 16.6102 9.17525 16.5332 8.99645C16.4562 8.8149 16.4177 8.61684 16.4177 8.40228C16.4177 8.18772 16.4562 7.99104 16.5332 7.81224C16.6102 7.63069 16.7189 7.4739 16.8592 7.34186C16.9995 7.20707 17.1645 7.10255 17.3543 7.02827C17.5441 6.954 17.7504 6.91687 17.9732 6.91687C18.1988 6.91687 18.4051 6.954 18.5922 7.02827C18.782 7.10255 18.947 7.20707 19.0873 7.34186C19.2276 7.4739 19.3362 7.63069 19.4133 7.81224C19.4903 7.99104 19.5288 8.18772 19.5288 8.40228C19.5288 8.61684 19.4903 8.8149 19.4133 8.99645C19.3362 9.178 19.2276 9.33479 19.0873 9.46683C18.947 9.59887 18.782 9.70202 18.5922 9.77629C18.4051 9.85056 18.2002 9.8877 17.9774 9.8877ZM17.9732 9.41732C18.119 9.41732 18.2538 9.39256 18.3776 9.34305C18.5014 9.29353 18.6087 9.22339 18.6994 9.13261C18.7902 9.03909 18.8604 8.93181 18.9099 8.81077C18.9621 8.68699 18.9883 8.55082 18.9883 8.40228C18.9883 8.25374 18.9621 8.11895 18.9099 7.99792C18.8604 7.87414 18.7902 7.76686 18.6994 7.67608C18.6087 7.58255 18.5014 7.51103 18.3776 7.46152C18.2538 7.41201 18.119 7.38725 17.9732 7.38725C17.8274 7.38725 17.6927 7.41201 17.5689 7.46152C17.4478 7.51103 17.3406 7.58255 17.247 7.67608C17.1563 7.76686 17.0847 7.87414 17.0325 7.99792C16.983 8.11895 16.9582 8.25374 16.9582 8.40228C16.9582 8.54807 16.983 8.68286 17.0325 8.80665C17.0847 8.93043 17.1563 9.03909 17.247 9.13261C17.3378 9.22339 17.4451 9.29353 17.5689 9.34305C17.6927 9.39256 17.8274 9.41732 17.9732 9.41732ZM20.0974 9.84644V6.95813H20.5389L22.3502 9.18213H22.1316V6.95813H22.6638V9.84644H22.2223L20.411 7.62244H20.6296V9.84644H20.0974ZM23.0293 9.84644L24.329 6.95813H24.8572L26.161 9.84644H25.5999L24.4817 7.24283H24.6962L23.5822 9.84644H23.0293ZM23.6276 9.178L23.772 8.75713H25.3317L25.4761 9.178H23.6276ZM26.9692 9.84644V7.41201H26.0119V6.95813H28.4629V7.41201H27.5056V9.84644H26.9692ZM30.1785 9.8877C29.953 9.8877 29.7453 9.85056 29.5555 9.77629C29.3657 9.70202 29.2006 9.59887 29.0603 9.46683C28.92 9.33204 28.8114 9.17525 28.7344 8.99645C28.6573 8.8149 28.6188 8.61684 28.6188 8.40228C28.6188 8.18772 28.6573 7.99104 28.7344 7.81224C28.8114 7.63069 28.92 7.4739 29.0603 7.34186C29.2006 7.20707 29.3657 7.10255 29.5555 7.02827C29.7453 6.954 29.9516 6.91687 30.1744 6.91687C30.4 6.91687 30.6063 6.954 30.7933 7.02827C30.9831 7.10255 31.1482 7.20707 31.2885 7.34186C31.4287 7.4739 31.5374 7.63069 31.6144 7.81224C31.6914 7.99104 31.7299 8.18772 31.7299 8.40228C31.7299 8.61684 31.6914 8.8149 31.6144 8.99645C31.5374 9.178 31.4287 9.33479 31.2885 9.46683C31.1482 9.59887 30.9831 9.70202 30.7933 9.77629C30.6063 9.85056 30.4013 9.8877 30.1785 9.8877ZM30.1744 9.41732C30.3202 9.41732 30.455 9.39256 30.5788 9.34305C30.7025 9.29353 30.8098 9.22339 30.9006 9.13261C30.9914 9.03909 31.0615 8.93181 31.111 8.81077C31.1633 8.68699 31.1894 8.55082 31.1894 8.40228C31.1894 8.25374 31.1633 8.11895 31.111 7.99792C31.0615 7.87414 30.9914 7.76686 30.9006 7.67608C30.8098 7.58255 30.7025 7.51103 30.5788 7.46152C30.455 7.41201 30.3202 7.38725 30.1744 7.38725C30.0286 7.38725 29.8938 7.41201 29.77 7.46152C29.649 7.51103 29.5417 7.58255 29.4482 7.67608C29.3574 7.76686 29.2859 7.87414 29.2336 7.99792C29.1841 8.11895 29.1594 8.25374 29.1594 8.40228C29.1594 8.54807 29.1841 8.68286 29.2336 8.80665C29.2859 8.93043 29.3574 9.03909 29.4482 9.13261C29.539 9.22339 29.6462 9.29353 29.77 9.34305C29.8938 9.39256 30.0286 9.41732 30.1744 9.41732Z" fill="#F5F0DE"/>
<path d="M0.798612 17.3821V11.435H1.70767L4.30741 15.7764H3.83164L6.38889 11.435H7.29795L7.30645 17.3821H6.26145L6.25296 13.0747H6.47385L4.29891 16.7024H3.80615L1.59722 13.0747H1.8521V17.3821H0.798612ZM8.91283 17.3821V11.435H10.0173V17.3821H8.91283ZM11.6259 17.3821V11.435H12.5349L16.2646 16.0142H15.8143V11.435H16.9103V17.3821H16.0012L12.2716 12.8028H12.7218V17.3821H11.6259ZM19.5234 13.9073H22.4799V14.8163H19.5234V13.9073ZM19.6083 16.456H22.9642V17.3821H18.5039V11.435H22.8453V12.361H19.6083V16.456ZM24.1954 17.3821V11.435H25.2999V17.3821H24.1954ZM26.9085 17.3821V11.435H29.3553C29.882 11.435 30.3323 11.5199 30.7061 11.6898C31.0856 11.8598 31.3773 12.1033 31.5812 12.4205C31.7851 12.7377 31.887 13.1143 31.887 13.5504C31.887 13.9866 31.7851 14.3632 31.5812 14.6804C31.3773 14.9919 31.0856 15.2326 30.7061 15.4025C30.3323 15.5668 29.882 15.6489 29.3553 15.6489H27.5202L28.0129 15.1477V17.3821H26.9085ZM30.7996 17.3821L29.2958 15.2241H30.4767L31.989 17.3821H30.7996ZM28.0129 15.2666L27.5202 14.7399H29.3043C29.7914 14.7399 30.1567 14.6351 30.4003 14.4255C30.6495 14.216 30.7741 13.9243 30.7741 13.5504C30.7741 13.171 30.6495 12.8793 30.4003 12.6754C30.1567 12.4715 29.7914 12.3695 29.3043 12.3695H27.5202L28.0129 11.8258V15.2666ZM35.9094 17.467C35.4449 17.467 35.0173 17.3906 34.6265 17.2377C34.2357 17.0847 33.8959 16.8723 33.607 16.6005C33.3181 16.3229 33.0944 16.0001 32.9358 15.6319C32.7772 15.2581 32.6979 14.8503 32.6979 14.4085C32.6979 13.9667 32.7772 13.5618 32.9358 13.1936C33.0944 12.8198 33.3181 12.497 33.607 12.2251C33.8959 11.9476 34.2357 11.7323 34.6265 11.5794C35.0173 11.4265 35.4421 11.35 35.9009 11.35C36.3653 11.35 36.7901 11.4265 37.1753 11.5794C37.5661 11.7323 37.9059 11.9476 38.1948 12.2251C38.4836 12.497 38.7073 12.8198 38.8659 13.1936C39.0245 13.5618 39.1038 13.9667 39.1038 14.4085C39.1038 14.8503 39.0245 15.2581 38.8659 15.6319C38.7073 16.0057 38.4836 16.3286 38.1948 16.6005C37.9059 16.8723 37.5661 17.0847 37.1753 17.2377C36.7901 17.3906 36.3682 17.467 35.9094 17.467ZM35.9009 16.4985C36.2011 16.4985 36.4786 16.4475 36.7335 16.3456C36.9884 16.2436 37.2092 16.0992 37.3962 15.9123C37.5831 15.7197 37.7275 15.4988 37.8294 15.2496C37.9371 14.9947 37.9909 14.7144 37.9909 14.4085C37.9909 14.1027 37.9371 13.8251 37.8294 13.5759C37.7275 13.3211 37.5831 13.1002 37.3962 12.9133C37.2092 12.7207 36.9884 12.5734 36.7335 12.4715C36.4786 12.3695 36.2011 12.3185 35.9009 12.3185C35.6007 12.3185 35.3232 12.3695 35.0683 12.4715C34.8191 12.5734 34.5982 12.7207 34.4056 12.9133C34.2187 13.1002 34.0714 13.3211 33.9638 13.5759C33.8619 13.8251 33.8109 14.1027 33.8109 14.4085C33.8109 14.7087 33.8619 14.9862 33.9638 15.2411C34.0714 15.496 34.2187 15.7197 34.4056 15.9123C34.5925 16.0992 34.8134 16.2436 35.0683 16.3456C35.3232 16.4475 35.6007 16.4985 35.9009 16.4985Z" fill="#F5F0DE"/>
<path d="M27.7562 22.5803V22.1625L29.0912 20.8948C29.2032 20.7892 29.2864 20.6963 29.3409 20.6163C29.3953 20.5363 29.4305 20.4626 29.4465 20.3954C29.4657 20.325 29.4753 20.2593 29.4753 20.1985C29.4753 20.0449 29.4225 19.9264 29.3169 19.8432C29.2112 19.7567 29.0559 19.7135 28.8511 19.7135C28.6878 19.7135 28.5389 19.7423 28.4045 19.8C28.2732 19.8576 28.1596 19.9456 28.0635 20.0641L27.6266 19.7279C27.7578 19.5519 27.9339 19.4158 28.1548 19.3198C28.3789 19.2205 28.6286 19.1709 28.9039 19.1709C29.1472 19.1709 29.3585 19.2109 29.5378 19.2909C29.7202 19.3678 29.8595 19.4782 29.9555 19.6223C30.0548 19.7663 30.1044 19.9376 30.1044 20.1361C30.1044 20.2449 30.09 20.3538 30.0612 20.4626C30.0324 20.5683 29.9779 20.6803 29.8979 20.7988C29.8179 20.9172 29.701 21.0501 29.5474 21.1973L28.3997 22.2874L28.27 22.0521H30.234V22.5803H27.7562ZM31.9965 22.6283C31.7308 22.6283 31.4907 22.5611 31.2762 22.4267C31.0649 22.2922 30.8985 22.0969 30.7768 21.8408C30.6552 21.5815 30.5943 21.2678 30.5943 20.8996C30.5943 20.5315 30.6552 20.2193 30.7768 19.9632C30.8985 19.7039 31.0649 19.507 31.2762 19.3726C31.4907 19.2381 31.7308 19.1709 31.9965 19.1709C32.2654 19.1709 32.5055 19.2381 32.7168 19.3726C32.9281 19.507 33.0946 19.7039 33.2162 19.9632C33.3411 20.2193 33.4035 20.5315 33.4035 20.8996C33.4035 21.2678 33.3411 21.5815 33.2162 21.8408C33.0946 22.0969 32.9281 22.2922 32.7168 22.4267C32.5055 22.5611 32.2654 22.6283 31.9965 22.6283ZM31.9965 22.0857C32.1534 22.0857 32.2895 22.0441 32.4047 21.9609C32.52 21.8744 32.6096 21.7432 32.6736 21.5671C32.7408 21.391 32.7745 21.1685 32.7745 20.8996C32.7745 20.6275 32.7408 20.405 32.6736 20.2321C32.6096 20.0561 32.52 19.9264 32.4047 19.8432C32.2895 19.7567 32.1534 19.7135 31.9965 19.7135C31.8461 19.7135 31.7116 19.7567 31.5932 19.8432C31.4779 19.9264 31.3867 20.0561 31.3194 20.2321C31.2554 20.405 31.2234 20.6275 31.2234 20.8996C31.2234 21.1685 31.2554 21.391 31.3194 21.5671C31.3867 21.7432 31.4779 21.8744 31.5932 21.9609C31.7116 22.0441 31.8461 22.0857 31.9965 22.0857ZM33.7775 22.5803V22.1625L35.1124 20.8948C35.2245 20.7892 35.3077 20.6963 35.3621 20.6163C35.4166 20.5363 35.4518 20.4626 35.4678 20.3954C35.487 20.325 35.4966 20.2593 35.4966 20.1985C35.4966 20.0449 35.4438 19.9264 35.3381 19.8432C35.2325 19.7567 35.0772 19.7135 34.8723 19.7135C34.7091 19.7135 34.5602 19.7423 34.4257 19.8C34.2945 19.8576 34.1808 19.9456 34.0848 20.0641L33.6478 19.7279C33.7791 19.5519 33.9552 19.4158 34.176 19.3198C34.4001 19.2205 34.6498 19.1709 34.9252 19.1709C35.1685 19.1709 35.3797 19.2109 35.559 19.2909C35.7415 19.3678 35.8808 19.4782 35.9768 19.6223C36.076 19.7663 36.1257 19.9376 36.1257 20.1361C36.1257 20.2449 36.1113 20.3538 36.0824 20.4626C36.0536 20.5683 35.9992 20.6803 35.9192 20.7988C35.8391 20.9172 35.7223 21.0501 35.5686 21.1973L34.4209 22.2874L34.2913 22.0521H36.2553V22.5803H33.7775ZM38.0706 22.6283C37.7665 22.6283 37.5056 22.5643 37.2879 22.4363C37.0702 22.305 36.9037 22.1161 36.7885 21.8696C36.6732 21.6231 36.6156 21.319 36.6156 20.9572C36.6156 20.5731 36.6844 20.2481 36.8221 19.9824C36.963 19.7167 37.1566 19.515 37.4031 19.3774C37.6529 19.2397 37.9394 19.1709 38.2627 19.1709C38.4324 19.1709 38.594 19.1885 38.7477 19.2237C38.9046 19.2589 39.0374 19.3134 39.1463 19.387L38.9158 19.8576C38.8229 19.7968 38.7221 19.7551 38.6133 19.7327C38.5076 19.7071 38.3956 19.6943 38.2771 19.6943C37.9602 19.6943 37.7089 19.792 37.5232 19.9872C37.3375 20.1825 37.2447 20.4706 37.2447 20.8516C37.2447 20.9124 37.2463 20.9845 37.2495 21.0677C37.2527 21.1477 37.2639 21.2294 37.2831 21.3126L37.091 21.1013C37.1486 20.97 37.2271 20.8612 37.3263 20.7748C37.4288 20.6851 37.5488 20.6179 37.6865 20.5731C37.8273 20.5283 37.9794 20.5059 38.1427 20.5059C38.3635 20.5059 38.5604 20.5491 38.7333 20.6355C38.9062 20.7187 39.0438 20.8388 39.1463 20.9957C39.2487 21.1493 39.2999 21.3302 39.2999 21.5383C39.2999 21.7592 39.2455 21.9513 39.1367 22.1145C39.0278 22.2778 38.8806 22.4042 38.6949 22.4939C38.5092 22.5835 38.3011 22.6283 38.0706 22.6283ZM38.037 22.1385C38.1651 22.1385 38.2787 22.1161 38.378 22.0713C38.4772 22.0233 38.554 21.9561 38.6085 21.8696C38.6661 21.7832 38.6949 21.6823 38.6949 21.5671C38.6949 21.391 38.6341 21.2518 38.5124 21.1493C38.3908 21.0469 38.2275 20.9957 38.0226 20.9957C37.8882 20.9957 37.7697 21.0213 37.6673 21.0725C37.568 21.1205 37.488 21.1877 37.4272 21.2742C37.3695 21.3606 37.3407 21.4599 37.3407 21.5719C37.3407 21.6743 37.3679 21.7688 37.4224 21.8552C37.4768 21.9417 37.5552 22.0105 37.6577 22.0617C37.7633 22.1129 37.8898 22.1385 38.037 22.1385Z" fill="#F5F0DE"/>
</svg>
